<?xml version="1.0" encoding="UTF-8"?>
<!DOCTYPE svg PUBLIC "-//W3C//DTD SVG 1.1//EN" "http://www.w3.org/Graphics/SVG/1.1/DTD/svg11.dtd">
<!-- Creator: CorelDRAW 2019 (64-Bit) -->
<svg xmlns="http://www.w3.org/2000/svg" xml:space="preserve" width="210mm" height="297mm" version="1.1" style="shape-rendering:geometricPrecision; text-rendering:geometricPrecision; image-rendering:optimizeQuality; fill-rule:evenodd; clip-rule:evenodd"
viewBox="0 0 21000 29700"
 xmlns:xlink="http://www.w3.org/1999/xlink"
 xmlns:xodm="http://www.corel.com/coreldraw/odm/2003">
 <defs>
  <style type="text/css">
   <![CDATA[
    .fil0 {fill:#2F2E41}
    .fil2 {fill:#3F3D56}
    .fil3 {fill:#9B9BB1}
    .fil1 {fill:#F2F2F2}
   ]]>
  </style>
 </defs>
 <g id="Layer_x0020_1">
  <metadata id="CorelCorpID_0Corel-Layer"/>
  <polygon class="fil0" points="11497.91,11464.37 10958.56,11270.66 11054.85,11002.56 11390.67,10920.21 11594.2,11196.28 "/>
  <path class="fil1" d="M11432.57 11411.21l-403.05 -153.64c104.63,-140.16 151.42,-239.02 151.45,-394.59l403.06 153.64c-93.64,133.01 -132.8,233 -151.46,394.59z"/>
  <rect class="fil2" transform="matrix(0.100285 0.0382281 -0.0382281 0.100285 11255.5 10958)" width="2082.17" height="96.85"/>
  <rect class="fil2" transform="matrix(0.100285 0.0382281 -0.0382281 0.100285 11240.7 10996.9)" width="2082.17" height="96.85"/>
  <rect class="fil2" transform="matrix(0.100285 0.0382281 -0.0382281 0.100285 11225.9 11035.7)" width="2082.17" height="96.85"/>
  <rect class="fil2" transform="matrix(0.100285 0.0382281 -0.0382281 0.100285 11211.1 11074.6)" width="2082.17" height="96.85"/>
  <rect class="fil2" transform="matrix(0.100285 0.0382281 -0.0382281 0.100285 11196.2 11113.4)" width="2082.17" height="96.85"/>
  <rect class="fil2" transform="matrix(0.100285 0.0382281 -0.0382281 0.100285 11181.4 11152.3)" width="2082.17" height="96.85"/>
  <rect class="fil2" transform="matrix(0.100285 0.0382281 -0.0382281 0.100285 11166.6 11191.1)" width="2082.17" height="96.85"/>
  <rect class="fil2" transform="matrix(0.100285 0.0382281 -0.0382281 0.100285 11151.8 11230)" width="2082.17" height="96.85"/>
  <polygon class="fil2" points="11485.45,11499.06 10946.1,11305.35 11054.85,11002.56 11282.61,11216.12 11594.2,11196.28 "/>
  <polygon class="fil3" points="11211.4,11403.66 10942.47,11307.07 11008,11124.61 11013.35,11126.53 10949.74,11303.64 11213.32,11398.31 "/>
  <rect class="fil3" transform="matrix(0.101007 0.0362777 -0.0362777 0.101007 11037 11181.3)" width="780.65" height="312.26"/>
  <ellipse class="fil3" transform="matrix(0.0382281 -0.100285 0.100285 0.0382281 11389.3 10947.1)" rx="238.91" ry="661.46"/>
  <path class="fil3" d="M11513.58 10568.83c-10.35,-3.22 -21.18,-4.86 -32.04,-4.86 -47.24,0 -89.02,30.76 -103.04,75.86 -17.7,56.91 30.53,265.24 30.53,265.24 0,0 157.85,-144.25 175.55,-201.16 3.22,-10.35 4.87,-21.18 4.87,-32.04 0,-47.24 -30.76,-89.03 -75.87,-103.04l0 0zm-47.21 151.85c-21.37,-6.64 -35.94,-26.43 -35.94,-48.81 0,-28.22 22.89,-51.11 51.11,-51.11 28.23,0 51.12,22.89 51.12,51.11 0,5.14 -0.78,10.27 -2.31,15.18 -6.64,21.36 -26.43,35.93 -48.81,35.93 -5.14,0 -10.27,-0.78 -15.17,-2.3l0 0z"/>
 </g>
</svg>
