<?xml version="1.0" encoding="UTF-8"?>
<!DOCTYPE svg PUBLIC "-//W3C//DTD SVG 1.1//EN" "http://www.w3.org/Graphics/SVG/1.1/DTD/svg11.dtd">
<!-- Creator: CorelDRAW 2019 (64-Bit) -->
<svg xmlns="http://www.w3.org/2000/svg" xml:space="preserve" width="210mm" height="297mm" version="1.1" style="shape-rendering:geometricPrecision; text-rendering:geometricPrecision; image-rendering:optimizeQuality; fill-rule:evenodd; clip-rule:evenodd"
viewBox="0 0 21000 29700"
 xmlns:xlink="http://www.w3.org/1999/xlink"
 xmlns:xodm="http://www.corel.com/coreldraw/odm/2003"
 data-name="Layer 1">
 <defs>
  <style type="text/css">
   <![CDATA[
    .fil1 {fill:#3F3D56}
    .fil9 {fill:#454B69}
    .fil3 {fill:#6C63FF}
    .fil8 {fill:#A1616A}
    .fil0 {fill:#F2F2F2}
    .fil10 {fill:white}
    .fil2 {fill:black;fill-opacity:0.101961}
    .fil7 {fill:#5853BD;fill-opacity:0.101961}
    .fil5 {fill:#6763BD;fill-opacity:0.101961}
    .fil6 {fill:#6C63FF;fill-opacity:0.101961}
    .fil4 {fill:#8C7070;fill-opacity:0.101961}
    .fil11 {fill:#6C63FF;fill-opacity:0.501961}
   ]]>
  </style>
 </defs>
 <g id="Layer_x0020_1">
  <metadata id="CorelCorpID_0Corel-Layer"/>
  <g id="_1856145242368">
   <path class="fil0" d="M10744.18 18137.65l-963.41 455.97 852.66 -637.58c-138.02,-215.8 -294.86,-421.99 -465.8,-612.9l-4177.97 1038.79 3774.1 -1439.68c-172.2,-151.51 -356.03,-291.88 -548.1,-417.58l-6366.56 1025.33c-675.65,845.01 -1044.97,1895.29 -1044.97,2977.61l9583.46 0.05c0,-839.1 -222.99,-1664.66 -643.33,-2390.08l-0.08 0.07z"/>
   <path class="fil0" d="M8694.65 16228.47c-651.21,-317.52 -1367.26,-482.98 -2092.04,-482.98 -1.75,0 -5.24,0 -6.98,0 -1480.17,0 -2803.51,671.16 -3682.48,1725.7 1505.38,-329.79 4125.97,-900.68 5781.5,-1242.72z"/>
   <path class="fil1" d="M9406.69 20420.62c-132.27,-22.41 -259.46,-41.65 -381.6,-57.73l48.28 -93.62c-16.28,-5.65 -87.81,47.96 -87.81,47.96l63.36 -271.74c-81.89,9.88 -123.51,287.33 -123.51,287.33l-91.49 -93.81 44.29 105.47c-319.74,-38.38 -645.61,-60.03 -968.39,-61.06l41.32 -80.12c-16.28,-5.65 -87.8,47.95 -87.8,47.95l63.35 -271.73c-81.88,9.87 -123.51,287.33 -123.51,287.33l-91.48 -93.81 46.91 111.7c-184.87,2.7 -371.45,15.97 -556.03,37.89 41.8,-124.82 183.8,-243.53 183.8,-243.53 -108.44,32.25 -165.32,86.29 -195.04,136.68 -0.45,-7.57 -0.45,-15.05 -0.45,-22.53 0,-249.83 43.02,-498.59 126.65,-733.72 83.62,-235.13 -224.15,487.75 -195.54,815.14l3.42 58.14c-190.02,27.21 -285.55,55.51 -285.55,55.51l2566.82 32.3z"/>
   <path class="fil1" d="M6441.58 20403.17c-132.27,-22.42 -259.47,-41.66 -381.61,-57.74l48.28 -93.61c-16.28,-5.65 -87.8,47.95 -87.8,47.95l63.36 -271.74c-81.89,9.88 -123.52,287.34 -123.52,287.34l-91.48 -93.82 44.29 105.47c-319.73,-38.38 -645.6,-60.03 -968.38,-61.06l41.33 -80.12c-16.28,-5.65 -87.81,47.96 -87.81,47.96l63.36 -271.74c-81.89,9.88 -123.52,287.33 -123.52,287.33l-91.48 -93.81 46.91 111.7c-184.87,2.71 -371.44,15.98 -556.03,37.9 41.8,-124.82 183.8,-243.53 183.8,-243.53 -108.44,32.25 -165.32,86.29 -195.04,136.68 -0.45,-7.57 -0.45,-15.05 -0.45,-22.53 0,-249.83 43.02,-498.59 126.64,-733.72 83.63,-235.13 -224.14,487.75 -195.54,815.14l3.43 58.14c-190.03,27.21 -285.56,55.51 -285.56,55.51l2566.82 32.3z"/>
   <path class="fil1" d="M9646.09 20508.41c0,148.8 -1382.86,596.57 -3088.69,596.57 -1705.84,0 -3088.7,-447.77 -3088.7,-596.57 0,-148.79 1382.86,57.74 3088.7,57.74 1705.83,0 3088.69,-206.53 3088.69,-57.74z"/>
   <path class="fil2" d="M9646.09 20508.41c0,148.8 -1382.86,596.57 -3088.69,596.57 -1705.84,0 -3088.7,-447.77 -3088.7,-596.57 0,-148.79 1382.86,57.74 3088.7,57.74 1705.83,0 3088.69,-206.53 3088.69,-57.74z"/>
   <ellipse class="fil1" cx="6557.4" cy="20508.41" rx="3088.68" ry="269.41"/>
   <path class="fil2" d="M9347.8 20441.06c0,-85.02 -1169.61,-153.95 -2612.4,-153.95 -1442.78,0 -2612.39,68.93 -2612.39,153.95 0,85.02 1169.61,153.95 2612.39,153.95 1442.79,0 2612.4,-68.93 2612.4,-153.95z"/>
   <path class="fil1" d="M4958.54 20193.15l294.74 -418.01 -295.17 463.67 -0.46 47.76c-20.84,-0.3 -41.46,-1.1 -61.87,-2.41l27.76 -613.46 -0.28 -4.74 0.54 -0.91 2.64 -57.97 -302.42 -460.61 303.02 417.2 0.84 12.29 20.96 -463.49 -259.48 -476.36 262.04 394.9 18.46 -960.79 0.09 -3.19 0.01 3.14 1.15 757.58 252.79 -302.12 -253.44 367.37 -3.82 414.91 235.33 -399.8 -235.85 460.81 -2.11 230.71 341.67 -556.63 -342.46 637.11 -4.68 513.04z"/>
   <path class="fil1" d="M7836.17 20349.29l760.86 0 -252.73 -408.49 -178.06 -14.84 104.33 -104.32 -635.81 -1027.65 0 -167.83 -85.5 0 -518.71 -1241.99 89.52 -123.09 -89.51 -67.13 -49.7 0.01 -290.39 -2635.05 43.58 0 67.13 -190.21 0 -369.24 -89.52 0 0 -179.03 -111.89 0 0 -346.86 -22.37 0 0 -335.67 -22.39 0 0 335.67 -33.56 0 0 346.86 -100.7 0 0 179.03 -100.7 0 0 369.24 78.33 190.21 45.25 0 -217.77 2635.05 -0.92 0 -145.45 44.76 78.32 134.27 5.6 11.19 -5.6 -0.01 -435.45 1241.99 -112.82 0 11.19 167.84 -939.88 1555.29 772.04 0 0 -179.03 -44.76 0c0,0 145.45,-984.65 1197.23,-1074.16 1074.15,-22.37 1275.56,1051.78 1275.56,1051.78l-44.75 0 0 201.41zm524.03 -363.65l29.83 104.43 -134.27 -89.51 104.44 -14.92zm-164.11 29.83l164.11 104.44 -179.03 -14.92 14.92 -89.52zm-193.95 104.44l104.44 -119.35 44.76 119.35 -149.2 0zm-174.76 -660.16l38.36 89.51 -166.23 -89.51 127.87 0zm-49.55 -57.54l12.78 -76.73 140.67 89.51 -153.45 -12.78zm239.23 404.4l44.76 104.44 -193.95 -104.44 149.19 0zm-202.47 -78.32l89.51 -102.3 38.37 102.3 -127.88 0zm153.45 -12.79l12.79 -76.72 140.66 89.51 -153.45 -12.79zm153.45 210.46l-59.67 -119.35 164.11 0 -104.44 119.35zm25.58 -223.25l-115.09 -76.72 89.51 -12.79 25.58 89.51zm-38.36 -127.87l-153.45 -12.79 89.51 -89.51 63.94 102.3zm-191.82 -12.79l-51.16 -102.3 140.68 0 -89.52 102.3zm39.96 -172.63l-115.09 -76.72 89.51 -12.79 25.58 89.51zm-38.36 -127.88l-153.45 -12.78 89.51 -89.51 63.94 102.29zm-191.82 -12.78l-51.15 -102.3 140.67 -0.01 -89.52 102.31zm-172.63 -171.04l12.79 -76.72 140.66 89.51 -153.45 -12.79zm121.49 158.25l-166.24 -89.51 127.87 -0.01 38.37 89.52zm57.54 -171.04l-115.1 -76.72 89.52 -12.79 25.58 89.51zm-38.36 -127.87l-153.45 -12.79 89.51 -89.51 63.94 102.3zm-102.3 -115.09l-89.51 102.3 -51.15 -102.3 140.66 0zm-140.66 89.51l-166.24 -89.51 127.87 0 38.37 89.51zm-1256.61 -285.32l231.2 -1029.4 358.05 0 306.03 1029.4 -895.28 0zm786.67 296.51l-166.25 -89.51 127.88 0 38.37 89.51zm-294.12 -22.38l-44.76 51.16 -25.57 -51.16 70.33 0zm-70.33 44.76l-83.12 -44.76 63.93 0 19.19 44.76zm-554.66 -637.78l167.84 -100.7 -44.76 190.21 -123.08 -89.51zm89.51 111.89l-268.54 0 145.45 -89.51 123.09 89.51zm411.84 -3570.19l-47.34 47.34 -47.34 -47.34 94.68 0zm-94.67 -20.65l47.34 -47.34 47.34 47.34 -94.68 0zm94.67 134.27l-94.67 0 47.34 -47.34 47.33 47.34zm-37.87 -56.81l47.34 -47.35 0 94.69 -47.34 -47.34zm45.62 100.7l0 111.89 -55.94 -55.95 55.94 -55.94zm-45.62 -234.97l47.34 -47.34 0 94.67 -47.34 -47.33zm12.05 -123.08l37.3 -37.3 0 74.59 -37.3 -37.29zm29.84 44.76l-74.6 0 37.3 -37.3 37.3 37.3zm-37.3 -52.22l-37.3 -37.3 74.6 0 -37.3 37.3zm-7.46 7.46l-37.3 37.29 0 -74.59 37.3 37.3zm40.74 66.27l-47.34 47.34 -47.34 -47.34 94.68 0zm-56.8 56.81l-47.34 47.34 0 -94.68 47.34 47.34zm0 134.27l-47.34 47.34 0 -94.68 47.34 47.34zm53.36 89.52l-55.94 55.94 -55.95 -55.94 111.89 0zm0 134.26l-111.89 0 55.95 -55.95 55.94 55.95zm11.19 44.76l0 111.88 -55.94 -55.94 55.94 -55.94zm-11.19 -11.19l-55.94 55.94 -55.95 -55.94 111.89 0zm0 134.27l-111.89 0 55.95 -55.95 55.94 55.95zm8.61 54.22l0 137.71 -68.85 -68.85 68.85 -68.86zm-13.77 151.49l-137.71 0 68.85 -68.86 68.86 68.86zm13.77 49.92l0 137.71 -68.85 -68.86 68.85 -68.85zm-13.77 -13.78l-68.86 68.86 -68.85 -68.86 137.71 0zm0 165.26l-137.71 0 68.85 -68.85 68.86 68.85zm10.76 57.24l0 167.83 -83.92 -83.91 83.92 -83.92zm-16.78 184.62l-167.84 0 83.91 -83.92 83.93 83.92zm16.78 61.54l0 167.84 -83.92 -83.92 83.92 -83.92zm-16.78 -16.79l-83.92 83.91 -83.91 -83.91 167.83 0zm0 201.41l-167.84 0 83.91 -83.92 83.93 83.92zm13.76 68.85l0 197.97 -98.97 -98.98 98.97 -98.99zm-19.79 217.76l-197.96 0 98.98 -98.98 98.98 98.98zm17.21 105.01l0 223.78 -111.89 -111.89 111.89 -111.89zm-22.38 246.16l-223.78 0 111.89 -111.89 111.89 111.89zm20.66 92.09l0 240.99 -120.5 -120.49 120.5 -120.5zm-24.1 -24.1l-120.49 120.5 -120.5 -120.5 240.99 0zm0 289.2l-240.99 0 120.5 -120.5 120.49 120.5zm-270.69 705.78l-223.79 0 134.27 -78.33 89.52 78.33zm-67.13 -100.71l145.45 -89.51 -33.56 201.41 -111.89 -111.9zm89.51 156.65l-33.57 190.21 -89.51 -100.7 123.08 -89.51zm-55.94 -22.38l-111.89 89.51 -78.33 -89.51 190.22 0zm-11.2 223.79l-234.97 0 123.08 -89.52 111.89 89.52zm76.73 671.34l-51.15 102.3 -89.51 -102.3 140.66 0zm38.36 0l127.88 0 -166.24 89.51 38.36 -89.51zm842.19 -540.33l-116.71 97.67 -57.58 -186.74 174.29 89.07zm-201.18 -154.53l-46.42 -187.5 128.88 80.95 -82.46 106.55zm139.8 -88.03l128.88 80.95 -234.43 15.96 105.55 -96.91zm-14.19 -43.89l-117.72 -81.7 189.77 -12.92 -72.05 94.62zm-153.49 -112.91l83.99 -84.22 139.28 69.02 -223.27 15.2zm-43.9 14.2l-47.17 -198.65 151.21 79.42 -104.04 119.23zm-272.47 -708.98l120.5 -120.5 120.49 120.5 -240.99 0zm-24.1 -24.11l0 -240.99 120.5 120.5 -120.5 120.49zm24.1 -265.09l240.99 0 -120.49 120.5 -120.5 -120.5zm-3.44 -67.99l111.88 -111.89 111.9 111.89 -223.78 0zm-22.38 -22.38l0 -223.78 111.89 111.89 -111.89 111.89zm-2.58 -348.59l0 -197.96 98.97 98.99 -98.97 98.97zm118.77 -79.18l98.98 98.98 -197.96 0 98.98 -98.98zm-81.76 -1474.38l-47.34 47.34 0 -94.68 47.34 47.34zm-37.87 -56.81l94.67 0 -47.34 47.34 -47.33 -47.34zm-7.75 325.35l55.94 55.94 -55.94 55.94 0 -111.88zm11.19 -11.19l111.89 0 -55.95 55.94 -55.94 -55.94zm-8.61 389.9l68.85 68.85 -68.85 68.86 0 -137.71zm13.77 -13.78l137.71 0 -68.85 68.86 -68.86 -68.86zm-10.76 468.66l83.92 83.91 -83.92 83.92 0 -167.83zm16.78 -16.79l167.84 0 -83.91 83.91 -83.93 -83.91zm83.93 117.49l83.91 83.92 -167.84 0 83.93 -83.92zm16.78 -16.79l83.91 -83.91 0 167.84 -83.91 -83.93zm-100.71 -145.45l83.92 -83.92 83.91 83.92 -167.83 0zm-16.78 -16.79l0 -167.84 83.92 83.92 -83.92 83.92zm79.62 -293.92l68.85 68.85 -137.71 0 68.86 -68.85zm13.77 -13.78l68.86 -68.85 0 137.71 -68.86 -68.86zm-82.63 -118.77l68.86 -68.86 68.85 68.86 -137.71 0zm-13.77 -13.78l0 -137.71 68.85 68.86 -68.85 68.85zm64.55 -247.88l55.95 55.95 -111.89 0 55.94 -55.95zm11.2 -11.19l55.94 -55.94 0 111.88 -55.94 -55.94zm-67.14 -100.7l55.94 -55.95 55.95 55.95 -111.89 0zm-11.19 -11.19l0 -111.89 55.94 55.94 -55.94 55.95zm55.08 -203.12l47.34 47.34 -94.67 0 47.33 -47.34zm9.47 -9.47l47.34 -47.35 0 94.69 -47.34 -47.34zm-56.8 -77.46l47.34 -47.34 47.34 47.34 -94.68 0zm-9.47 -9.48l0 -94.68 47.34 47.34 -47.34 47.34zm50.21 -170.41l37.3 -37.3 0 74.59 -37.3 -37.29zm29.84 44.76l-74.6 0 37.3 -37.3 37.3 37.3zm-37.3 -52.22l-37.3 -37.3 74.6 0 -37.3 37.3zm-7.46 7.46l-37.3 37.29 0 -74.59 37.3 37.3zm494.71 4184.73l-89.51 102.29 -51.15 -102.29 140.66 0zm-27.54 -433.81l116.71 -97.67 151.2 79.42 -267.91 18.25zm287.96 -53.26l-151.96 -90.59 84.74 -73.05 67.22 163.64zm-186.97 -110.63l-139.28 -69.01 223.27 -15.21 -83.99 84.22zm68.26 -150.44l-128.12 -69.78 72.07 -94.63 56.05 164.41zm-84.46 -252.2l-128.11 -69.78 72.82 -83.46 55.29 153.24zm-67.99 -174.81l-83.22 95.39 -151.2 -79.42 234.42 -15.97zm-215.43 -494.62l-120.5 -120.49 120.5 -120.5 0 240.99zm-22.39 -355.46l-111.88 -111.89 111.88 -111.88 0 223.77zm-134.26 -134.27l-111.89 -111.9 223.78 0 -111.89 111.9zm100.7 -214.32l-98.98 -98.97 98.99 -98.99 -0.01 197.96zm-118.77 -118.77l-98.99 -98.98 197.96 0 -98.97 98.98zm79.61 -410.99l-83.91 -83.91 83.91 -83.92 0 167.83zm-100.7 -100.7l-83.92 -83.92 167.83 0 -83.91 83.92zm61.54 -339.55l-68.86 -68.85 68.86 -68.86 0 137.71zm-82.63 -82.63l-68.86 -68.85 137.71 0 -68.85 68.85zm49.06 -288.33l-55.94 -55.94 55.94 -55.94 0 111.88zm-67.14 -67.13l-55.94 -55.94 111.89 0 -55.95 55.94zm44.76 -232.4l-47.34 -47.34 47.34 -47.34 0 94.68zm-56.81 -56.8l-47.34 -47.34 94.68 0 -47.34 47.34zm-211.73 244.44l55.94 55.94 -55.94 55.95 0 -111.89zm0 167.84l55.94 55.94 -55.94 55.94 0 -111.88zm117.92 163.53l-68.86 68.85 -68.85 -68.85 137.71 0zm-151.49 13.77l68.86 68.86 -68.86 68.85 0 -137.71zm0 201.41l68.86 68.85 -68.86 68.86 0 -137.71zm145.47 191.93l-83.92 83.92 -83.91 -83.92 167.83 0zm-184.63 16.78l83.91 83.92 -83.91 83.91 0 -167.83zm0 246.17l83.91 83.91 -83.91 83.92 0 -167.83zm178.6 233.68l-98.99 98.98 -98.98 -98.98 197.97 0zm-217.76 19.79l98.98 98.99 -98.98 98.98 0 -197.97zm212.59 300.38l-111.89 111.9 -111.89 -111.9 223.78 0zm-246.15 22.39l111.88 111.89 -111.88 111.88 0 -223.77zm-22.39 338.25l120.5 120.5 -120.5 120.49 0 -240.99zm50.36 758.28l-145.47 89.51 -89.51 -89.51 234.98 0zm-246.17 22.38l78.33 78.33 -123.08 78.33 44.75 -156.66zm-67.13 246.16l78.33 89.51 -123.08 78.33 44.75 -167.84zm167.83 234.97l-134.27 78.33 -89.51 -78.33 223.78 0zm-257.35 33.56l89.52 67.14 -145.46 100.7 55.94 -167.84zm63.94 604.22l-166.23 89.51 38.36 -89.51 127.87 0zm-166.23 0l-51.16 102.3 -89.51 -102.3 140.67 0zm-179.03 12.79l89.52 89.51 -153.45 12.79 63.93 -102.3zm143.87 311.69l-166.24 89.51 38.37 -89.51 127.87 0zm-220.59 -55.94l140.66 -89.51 12.79 76.72 -153.45 12.79zm0 -115.09l89.51 12.79 -115.09 76.72 25.58 -89.51zm54.34 171.03l-51.15 102.3 -89.51 -102.3 140.66 0zm-179.02 12.79l89.51 89.51 -153.45 12.78 63.94 -102.29zm-13.32 647.37l-193.95 104.43 44.76 -104.43 149.19 0zm-253.62 -78.32l140.66 -89.51 12.79 76.72 -153.45 12.79zm179.02 0l38.37 -102.3 89.51 102.3 -127.88 0zm242.96 -268.54l-166.23 89.51 38.36 -89.51 127.87 0zm-231.77 -44.76l140.67 -89.51 12.78 76.73 -153.45 12.78zm0 -115.09l89.51 12.79 -115.09 76.72 25.58 -89.51zm65.54 159.85l-51.16 102.3 -89.51 -102.3 140.67 0zm-179.03 12.79l89.51 89.51 -153.45 12.79 63.94 -102.3zm-76.72 140.66l89.51 12.79 -115.09 76.72 25.58 -89.51zm59.67 193.41l-59.67 119.35 -104.44 -119.35 164.11 0zm-298.38 179.03l104.44 14.92 -134.27 89.51 29.83 -104.43zm0 134.27l164.11 -104.44 14.92 89.52 -179.03 14.92zm14.93 -179.03l74.59 -119.35 104.44 104.43 -179.03 14.92zm193.94 179.03l44.76 -119.35 104.44 119.35 -149.2 0zm208.86 -14.92l-104.42 -119.35 179.02 -14.93 -74.6 134.28zm89.51 -179.03l-164.1 0 208.86 -104.43 -44.76 104.43zm89.52 -210.46l-89.51 -102.3 153.45 -12.78 -63.94 115.08zm76.73 -153.45l-140.67 0 179.02 -89.51 -38.35 89.51zm-65.55 -147.06l38.37 -102.29 89.51 102.29 -127.88 0zm179.04 -12.78l-89.51 -102.3 153.45 -12.79 -63.94 115.09zm76.72 -153.45l-140.66 0 179.02 -89.51 -38.36 89.51zm-54.35 -158.25l38.37 -102.3 89.51 102.3 -127.88 0zm179.02 -12.79l-89.51 -102.3 153.45 -12.78 -63.94 115.08zm-63.93 -153.45l179.02 -89.51 -38.37 89.51 -140.65 0zm187.01 51.15l89.51 12.79 -115.09 76.72 25.58 -89.51zm0 115.09l140.67 -89.51 12.78 76.72 -153.45 12.79zm12.8 -153.45l63.94 -102.3 89.51 89.51 -153.45 12.79zm166.23 153.45l38.37 -102.3 89.51 102.3 -127.88 0zm179.03 -12.79l-89.51 -102.3 153.45 -12.78 -63.94 115.08zm-63.94 -153.45l179.02 -89.51 -38.37 89.51 -140.65 0zm174.23 -17.58l89.51 44.76 -70.33 0 -19.18 -44.76zm25.58 63.93l76.73 6.4 -44.76 51.15 -31.97 -57.55zm57.54 63.94l44.76 -51.15 19.18 51.15 -63.94 0zm115.09 -127.87l31.97 51.15 -76.73 -6.39 44.76 -44.76zm-38.37 121.48l6.4 -38.36 70.33 44.76 -76.73 -6.4zm31.98 -44.76l44.76 -6.39 12.78 44.76 -57.54 -38.37zm63.94 -137.47l179.02 89.51 -140.67 0.01 -38.35 -89.52zm51.14 127.88l153.45 12.79 -89.51 102.29 -63.94 -115.08zm115.09 127.88l89.51 -102.3 38.37 102.3 -127.88 0zm230.18 -255.76l63.94 102.3 -153.45 -12.79 89.51 -89.51zm-76.73 242.97l12.79 -76.72 140.66 89.51 -153.45 -12.79zm63.94 -89.52l89.51 -12.78 25.58 89.51 -115.09 -76.73zm86.32 -164.63l179.02 89.51 -140.66 0 -38.36 -89.51zm51.15 127.87l153.45 12.78 -89.51 102.3 -63.94 -115.08zm204.59 25.58l38.37 102.3 -127.88 0 89.51 -102.3zm6.4 260.55l-38.37 -89.51 179.02 89.51 -140.65 0zm12.79 38.35l153.45 12.79 -89.51 102.3 -63.94 -115.09zm204.6 25.59l38.36 102.29 -127.87 0 89.51 -102.29zm-65.54 159.84l179.03 89.51 -140.67 0 -38.36 -89.51zm51.16 127.88l153.45 12.78 -89.51 102.3 -63.94 -115.08zm108.69 221.11l208.86 104.43 -164.1 0 -44.76 -104.43zm59.67 149.18l179.02 14.93 -104.43 119.35 -74.59 -134.28z"/>
   <polygon class="fil2" points="6364.81,14111.35 6510.26,14111.35 6510.26,14044.21 6364.81,14044.21 "/>
   <polygon class="fil2" points="6599.78,14111.35 6745.24,14111.35 6745.24,14044.21 6599.78,14044.21 "/>
   <path class="fil1" d="M9261.95 20190.32c-120.61,71.11 -168.08,214.07 -168.08,214.07 0,0 148.07,27.65 268.68,-43.47 120.61,-71.12 168.07,-214.06 168.07,-214.06 0,0 -148.07,-27.65 -268.67,43.46z"/>
   <path class="fil3" d="M9304.21 20234.41c-67.54,122.65 -209.03,174.3 -209.03,174.3 0,0 -32,-147.2 35.54,-269.84 67.53,-122.64 209.03,-174.3 209.03,-174.3 0,0 31.99,147.2 -35.54,269.84z"/>
  </g>
  <path class="fil4" d="M8482.84 20904.06l11312.53 0c0,0 991.74,-1148.63 -175.58,-2329.34 -433.16,-437.86 -466.1,-979.28 -336.35,-1487.17 350.75,-1372.87 -1052.99,-2587.83 -2576,-2231.28 -29.01,6.85 -58.32,13.79 -87.84,21 -2295.65,560.17 -4175.16,-2.79 -4898.54,-281.47 -260.7,-100.68 -541.86,-152.94 -825.82,-152.94 -29.46,0 -59.68,0.68 -88.89,1.59 -811.82,32.45 -2042.1,312.21 -899.36,1853.27 1611.09,2172.62 -1424.15,4606.34 -1424.15,4606.34z"/>
  <ellipse class="fil1" cx="11207.72" cy="20449.44" rx="226.65" ry="265.44"/>
  <ellipse class="fil1" cx="11207.72" cy="20124.97" rx="226.65" ry="265.44"/>
  <ellipse class="fil1" cx="11207.72" cy="19800.5" rx="226.65" ry="265.44"/>
  <ellipse class="fil1" cx="11207.72" cy="19476.02" rx="226.65" ry="265.44"/>
  <ellipse class="fil1" cx="11207.72" cy="19151.55" rx="226.65" ry="265.44"/>
  <ellipse class="fil1" cx="11207.72" cy="18827.08" rx="226.65" ry="265.44"/>
  <ellipse class="fil1" cx="11207.72" cy="18502.61" rx="226.65" ry="265.44"/>
  <ellipse class="fil1" cx="13091.46" cy="20530.56" rx="125.92" ry="147.45"/>
  <ellipse class="fil1" cx="13091.46" cy="20350.3" rx="125.92" ry="147.45"/>
  <ellipse class="fil1" cx="13091.46" cy="20170.04" rx="125.92" ry="147.45"/>
  <ellipse class="fil1" cx="13091.46" cy="19989.77" rx="125.92" ry="147.45"/>
  <ellipse class="fil1" cx="13091.46" cy="19809.51" rx="125.92" ry="147.45"/>
  <ellipse class="fil1" cx="13091.46" cy="19629.25" rx="125.92" ry="147.45"/>
  <ellipse class="fil1" cx="13091.46" cy="19448.99" rx="125.92" ry="147.45"/>
  <path class="fil3" d="M12056.21 16282.15c30.85,-35.21 59.17,-72.43 84.4,-111.1l-595.43 -87.55 644.1 4.24c65.34,-127.35 99.35,-266.15 99.35,-406.38 0,-124.43 -26.83,-247.9 -78.63,-363.3l-864.21 401.09 796.85 -524.34c-194.06,-299.9 -552.21,-484.79 -939.66,-484.79 -599.52,0 -1085.72,435.01 -1085.72,971.43 0,217.74 82.05,429.32 232.36,600.46 -48.38,54.97 -90.05,114.46 -124.02,177.4l773.04 359.35 -824.16 -247.56c-37.82,100.11 -57.31,205.69 -57.31,311.5 0,217.81 81.94,429.56 232.42,600.75 -150.41,171.05 -232.32,382.72 -232.32,600.44 0,536.37 486.15,971.34 1085.62,971.34 599.47,0 1085.62,-434.97 1085.62,-971.34 0,-217.72 -81.91,-429.39 -232.34,-600.51 150.38,-171.11 232.32,-382.74 232.32,-600.55 0,-217.8 -81.94,-429.43 -232.29,-600.62l0.01 0.04z"/>
  <path class="fil2" d="M10117.16 16882.78c0.01,0.5 0.01,0.97 0.01,1.44 0,217.35 81.94,428.56 232.36,599.15 -150.35,171.03 -232.26,382.7 -232.26,600.42 0,536.37 486.15,971.34 1085.62,971.34 599.47,0 1085.62,-434.97 1085.62,-971.34 0,-217.72 -81.91,-429.39 -232.34,-600.51 145.5,-165.26 -1939.01,-709.56 -1939.01,-600.5z"/>
  <path class="fil3" d="M12525.13 17814.1c-20.6,-23.45 -39.55,-48.26 -56.24,-74.07l397 -58.41 -429.44 2.89c-43.51,-84.97 -66.18,-177.43 -66.18,-270.91 0,-82.95 17.89,-165.27 52.42,-242.2l576.09 267.67 -531.27 -349.71c129.38,-199.68 368.05,-322.78 626.16,-322.78 399.66,0 723.78,289.99 723.78,647.59 0,145 -54.52,285.88 -154.55,399.89 32.14,36.52 59.89,76.24 82.52,118.09l-515.36 239.56 549.52 -164.82c25.29,66.84 38.28,137.2 38.28,207.8 0,145.16 -54.61,286.28 -154.9,400.37 100.08,114.05 154.6,255.02 154.6,400.09 0,357.6 -324.11,647.59 -723.78,647.59 -399.66,0 -723.78,-289.99 -723.78,-647.59 0,-145.07 54.53,-286.04 154.64,-400.05 -100.28,-114.05 -154.83,-255.26 -154.83,-400.42 0,-145.15 54.55,-286.36 154.81,-400.43l0.51 -0.15z"/>
  <path class="fil2" d="M13817.86 18214.19c0.01,0.21 0.01,0.68 0.01,0.92 0,144.91 -54.66,285.79 -154.92,399.51 100.09,114.04 154.61,255 154.61,400.08 0,357.59 -324.11,647.59 -723.78,647.59 -399.66,0 -723.78,-290 -723.78,-647.59 0,-145.08 54.53,-286.04 154.64,-400.05 -96.52,-109.97 1293.22,-472.56 1293.22,-400.46z"/>
  <path class="fil1" d="M8482.84 20904.06c0,0 1214.06,-1054.53 1634.32,-699.78 420.27,354.76 2194.71,449.12 2358.21,428.22 163.49,-20.91 1120.67,-62.65 1657.69,-10.46 537.02,52.19 5463.36,-146.19 5661.81,282.02l-11312.03 0z"/>
  <path class="fil5" d="M16351.04 15744.6l-545.98 0c13.04,-14.7 20.15,-32.93 20.15,-51.71 0,-0.19 0,-0.38 0,-0.56 -0.03,-10.71 -2.37,-21.35 -6.85,-31.28l251.83 0c51.57,0 93.38,-37.41 93.38,-83.55 0,-46.14 -41.81,-83.55 -93.38,-83.55l-1505.28 0c-51.5,0.14 -93.22,37.48 -93.38,83.56 0,10.72 2.37,21.37 6.95,31.27l-251.84 0c-50.4,1.48 -90.4,38.47 -90.4,83.59 0,45.13 40,82.12 90.4,83.6l545.99 0c-13.04,14.67 -20.15,32.87 -20.15,51.62 0,0.18 0,0.39 0,0.57 0.16,46.07 41.88,83.41 93.38,83.55l1505.18 0c51.57,0 93.38,-37.41 93.38,-83.55 0,-46.14 -41.81,-83.55 -93.38,-83.55l0 -0.01z"/>
  <path class="fil6" d="M18814.21 16945.42l-545.98 0c13.35,-14.8 20.65,-33.26 20.65,-52.28 0,-0.03 0,-0.08 0,-0.11 0,-10.68 -2.33,-21.29 -6.85,-31.17l251.84 0.01c51.56,0 93.38,-37.41 93.38,-83.55 0,-46.14 -41.82,-83.55 -93.38,-83.55l-1505.69 -0.01c-51.5,0.15 -93.22,37.48 -93.38,83.56 0,0.06 0,0.12 0,0.18 0,10.66 2.34,21.24 6.85,31.1l-251.84 -0.01c-50.4,1.48 -90.41,38.48 -90.41,83.6 0,45.12 40.01,82.12 90.41,83.6l545.99 -0.01c-13.04,14.68 -20.15,32.88 -20.15,51.63 0,0.18 0,0.38 0,0.56 0.16,46.07 41.88,83.41 93.38,83.55l1505.18 0c51.57,0 93.38,-37.41 93.38,-83.55 0,-46.14 -41.81,-83.55 -93.38,-83.55l0 0z"/>
  <path class="fil7" d="M13891.5 16437.17l-319.84 0c7.82,-8.64 12.1,-19.43 12.1,-30.55 -0.09,-6.17 -1.45,-12.3 -4.03,-18.03l147.67 0c30.21,0 54.71,-21.92 54.71,-48.94 0,-27.02 -24.5,-48.94 -54.7,-48.94l-882.75 0c-30.16,0.09 -54.59,21.95 -54.69,48.94 0.06,6.19 1.47,12.32 4.13,18.03l-147.29 -0.01c-30.19,0 -54.69,21.92 -54.69,48.95 0,27.02 24.5,48.94 54.7,48.94l319.83 0c-7.8,8.64 -12.08,19.43 -12.08,30.55 0.05,27.03 24.49,48.94 54.7,49.03l882.23 0c29.32,-1.12 52.46,-22.72 52.46,-48.98 0,-26.26 -23.14,-47.86 -52.45,-48.98l-0.01 -0.01z"/>
  <path class="fil8" d="M15428.21 20427.36c-3.14,18.59 -9.08,36.83 -17.53,54.07 34.35,11.34 70.36,18.81 106.85,22.08 0.7,0.13 1.39,0.19 2.08,0.19 1.67,0 3.33,-0.37 4.8,-1.09 2.72,-1.89 2.32,-5.68 1.92,-9.01 -0.05,-1.34 -0.08,-2.7 -0.08,-4.04 0,-16.47 3.81,-32.79 11.16,-47.88 20.15,-50.17 40.02,-100.4 59.63,-150.69 -34.85,-14.15 -106.98,-5.59 -136.39,18.03 -27.1,21.81 -25.89,87.87 -32.44,118.34z"/>
  <path class="fil8" d="M15928.06 20511.45c-1.1,2.09 -1.72,4.36 -1.82,6.66 0,8.03 11.89,10.82 20.86,11.54 43.19,3.48 85.91,11.52 127.1,23.68 5.04,-13.34 -2.01,-27.67 -2.22,-41.64 0,-19.47 12.8,-36.77 20.75,-54.89 14.21,-32 13.1,-67.51 11.79,-101.94 -34.45,2.08 -116.65,-12.16 -135.89,19.74 -10.68,18.03 -10.07,45.07 -14.91,64.9 -6.46,24.45 -15.09,48.66 -25.64,71.95l-0.02 0z"/>
  <path class="fil1" d="M15723.16 19126.23l-90.66 4.77c-0.45,-0.02 -0.91,-0.03 -1.37,-0.03 -5.43,0 -10.73,1.52 -15.15,4.35 -3.85,3.93 -6.03,8.94 -6.15,14.16 -12.08,81.12 9.17,163.95 -2.11,245.06 -4.54,31.91 -14.01,63.1 -21.36,94.46 -12.39,52.37 -19.14,105.63 -25.89,158.81 -2.98,17.74 -4.46,35.69 -4.46,53.65 0,8.62 0.4,17.38 1.04,25.96 2.62,22.35 10.07,44.16 10.98,66.6 -0.06,26.52 -5.28,52.91 -15.3,77.85 -15.07,42.98 -34.03,84.76 -56.45,125 -19.44,34.88 -41.71,68.86 -53.49,106.35 -18.74,59.67 -10.07,124.66 -32.34,183.33 -5.54,14.42 -12.99,29.29 -10.07,44.25 3.93,19.38 24.98,33.17 46.64,36.87 6.81,0.75 13.66,1.15 20.49,1.15 15.17,0 30.33,-1.88 44.91,-5.55 35.36,-6.76 72.93,-14.6 97.81,-38.03 14.46,-15.49 25.55,-33.31 32.64,-52.46 16.42,-36.05 32.74,-72.65 47.74,-109.42 6.43,-17.37 14.26,-34.47 23.16,-50.91 8.27,-14.06 18.54,-27.04 27.3,-41.1 14.42,-24.15 26.22,-49.54 35.06,-75.7 64.67,-177.56 84.41,-369.54 182.13,-534.48 4.63,-7.84 5.24,-18.03 10.07,-25.41 8.97,25.42 13.56,52.1 13.56,78.81 0,1.38 -0.04,2.82 -0.04,4.17 0.46,17.67 0.94,36.2 0.94,54.09 0,45.81 -2.38,92.03 -6.19,137.61 -4.03,46.51 -10.08,92.93 -11.28,139.62 0,21.27 0,42.63 0.5,63.99l0 17.39c0.8,30.38 1.61,60.75 4.93,90.94 14.21,124.74 -29.71,246.06 -13.9,370.62 0.22,4.42 1.84,8.71 4.75,12.27 6.75,6.49 18.73,2.98 27.9,-0.54 30.19,-11.68 62.47,-18.95 95.3,-21.28 0.26,0 0.57,0.01 0.84,0.01 9.72,0 19.33,-1.97 28.06,-5.77 14.51,-7.75 18.64,-24.6 21.26,-39.57 21.97,-121.31 43.89,-242.62 65.79,-363.94 5.67,-28.89 9.95,-58.42 12.44,-87.74 2.52,-38.22 -0.61,-76.62 3.53,-114.65 5.74,-54.08 30.22,-105.45 48.55,-156.83 9.47,-27.04 19.04,-53.63 27.7,-80.67 8.66,-27.03 16.62,-55.07 23.68,-82.83 12.08,-48.31 21.55,-98.15 13.19,-147.09 -8.36,-48.94 -37.17,-97.25 -85.72,-120.87 -35.56,-17.39 -77.27,-20.01 -117.46,-23.97 -114.74,-11.27 -229.07,-36.05 -344.01,-27.04 -19.9,1.67 -38.94,-7.34 -59.49,-6.26z"/>
  <path class="fil1" d="M15468.91 20780.58c6.04,-8.41 10.88,-17.53 14.31,-27.05l37.17 -90.13c11.6,-26.89 21.86,-54.44 30.2,-82.27 8.24,-30.08 12.45,-61 12.45,-91.97 0,-3.34 -0.11,-6.77 -0.16,-10.07 -37.76,-0.18 -75.5,-4.96 -111.89,-14.05 -13.73,-4.26 -28.07,-6.99 -42.53,-8.04 -39.99,1.02 -71.85,30.33 -71.85,66.14 0,1.3 0.05,2.61 0.13,3.9 1.04,5.4 1.59,10.91 1.61,16.4 -0.78,5.47 -2.55,10.8 -5.23,15.77l-39.7 86.53c-11.2,20.91 -18.04,43.58 -20.14,66.7 -2.82,80.94 138.51,141.78 195.63,68.14z"/>
  <path class="fil1" d="M15851.7 20772.74c-0.98,6.73 -1.51,13.59 -1.51,20.41 0,6.82 0.53,13.68 1.52,20.43 7.85,38.12 49.05,67.05 92.27,69.76 1.44,0.03 2.96,0.05 4.43,0.05 42.62,0 82.65,-18.39 107.48,-49.36 8.19,-9.63 14.52,-20.48 18.64,-32.01 3.37,-11.06 5.5,-22.5 6.25,-33.98l16.02 -151.69c2.32,-21.27 11.99,-52 0,-72.1 -10.08,-17.04 -34.55,-22.63 -53.39,-29.03 -25.26,-9.24 -52.37,-14.03 -79.67,-14.03 -6.42,0 -12.9,0.3 -19.26,0.8 -58.73,4.42 -58.12,58.05 -66.99,100.86 -11.55,56.36 -20.15,112.99 -25.79,169.89z"/>
  <path class="fil1" d="M15869.13 17691.97c-27.1,33.98 -66.59,58.95 -93.18,93.29 -22.5,29.2 -34.53,63.89 -34.53,99.38 0,2.46 0.08,4.98 0.17,7.42 0.91,19.47 5.44,39.39 0,58.23 -5.38,14.38 -14.28,27.58 -25.98,38.57 -43.81,45.94 -101.18,80.07 -165.49,98.42 -7.76,2.16 -17.43,6.85 -15.52,13.88 1.35,3.1 3.88,5.69 7.14,7.31l130.95 83.91c76.87,49.3 154.13,99.14 239.15,136.01 115.44,50.05 242.29,76.13 370.6,76.13 39.41,0 78.93,-2.51 117.93,-7.33 -21.35,-29.93 -34.66,-63.89 -38.76,-99.17 -5.04,-42.36 3.42,-85.09 2.51,-127.72 -0.67,-43.35 -10.98,-86.38 -30.21,-126.19 -11.28,-23.17 -25.59,-45.07 -34.25,-69.14 -9.08,-29.33 -14.01,-59.68 -14.5,-90.11l-6.75 -100.86c-0.26,-18.69 -3.42,-37.35 -9.36,-55.26 -5.66,-13.71 -13.77,-26.6 -23.97,-38.03 -47.95,-56.07 -120.89,-80.04 -197.24,-85.9 -33.35,-2.52 -74.14,-4.96 -104.87,8.02 -36.77,16.14 -51.68,51.56 -73.84,79.14z"/>
  <path class="fil8" d="M15856.64 18055.74c-8.3,18.8 -25.69,33.26 -47.25,39.3 -21.3,5.94 -43.55,8.98 -65.89,9.01l-48.04 1.99c-0.61,-0.05 -1.22,-0.08 -1.82,-0.08 -4.72,0 -9.3,1.43 -12.99,4.04 -2.6,2.68 -4.1,6.09 -4.23,9.64 -3.02,22.89 11.89,44.25 26.8,63.09 47.74,59.85 104.96,116.72 179.61,147.27 38.67,15.82 80.81,24.07 123.34,24.07 82.9,0 162.07,-31.13 218.14,-85.72 4.92,-3.95 8.25,-9.24 9.47,-15.05 -0.4,-8.8 -5.89,-16.8 -14.5,-21.09 -15.91,-10.54 -34.65,-17.39 -50.37,-27.85 -26.99,-18.43 -46.3,-44.54 -54.69,-73.99 -5.05,-17.87 -7.63,-36.27 -7.63,-54.7 0,-11.71 1.06,-23.42 3.1,-34.97 -59.74,-15.23 -124.81,-3.16 -184.65,-18.03 -14,-3.43 -40.29,-16.58 -55,-9.02 -14.71,7.57 -8.77,29.29 -13.4,42.09z"/>
  <path class="fil2" d="M15856.64 18055.74c-8.3,18.8 -25.69,33.26 -47.25,39.3 -21.3,5.94 -43.55,8.98 -65.89,9.01l-48.04 1.99c-0.61,-0.05 -1.22,-0.08 -1.82,-0.08 -4.72,0 -9.3,1.43 -12.99,4.04 -2.6,2.68 -4.1,6.09 -4.23,9.64 -3.02,22.89 11.89,44.25 26.8,63.09 47.74,59.85 104.96,116.72 179.61,147.27 38.67,15.82 80.81,24.07 123.34,24.07 82.9,0 162.07,-31.13 218.14,-85.72 4.92,-3.95 8.25,-9.24 9.47,-15.05 -0.4,-8.8 -5.89,-16.8 -14.5,-21.09 -15.91,-10.54 -34.65,-17.39 -50.37,-27.85 -26.99,-18.43 -46.3,-44.54 -54.69,-73.99 -5.05,-17.87 -7.63,-36.27 -7.63,-54.7 0,-11.71 1.06,-23.42 3.1,-34.97 -59.74,-15.23 -124.81,-3.16 -184.65,-18.03 -14,-3.43 -40.29,-16.58 -55,-9.02 -14.71,7.57 -8.77,29.29 -13.4,42.09z"/>
  <ellipse class="fil8" cx="16008.44" cy="17964.98" rx="201.17" ry="179.99"/>
  <path class="fil3" d="M16154.81 18148.4c-37.2,14.25 -75.95,25.57 -115.44,33.5 -15.83,3.14 -32.05,4.77 -48.27,4.77 -24.34,0 -48.56,-3.62 -71.6,-10.61 -26.11,-10.31 -51.08,-23.03 -74.26,-37.85 -41.7,-23.88 -87.24,-45.06 -136.6,-49.39 -23.07,-2.16 -48.25,0 -66.49,12.8 -17.11,13.99 -27.63,33.36 -29.3,54.07 -6.65,42.9 4.74,86.16 14.91,128.53 38.58,160.88 60.44,329.16 17.22,489.23 -22.66,84.99 1.82,173.41 5.14,260.75 0.02,1.16 -0.02,2.46 -0.02,3.68 0,28.76 4.51,57.44 13.24,85.1 10.58,28.39 31.93,54.98 62.76,66.61 28.71,10.82 61.25,7.48 92.28,5.23 36.96,-2.61 75.55,-3.07 109.09,10.82 23.77,9.91 46.03,27.04 72.03,24.96 13.3,-1.08 25.38,-7.21 38.58,-9.01 26.5,-3.97 51.88,9.01 75.96,19.65 59.54,26.37 124.9,41.21 191.35,43.37 33.95,-71.48 16.42,-151.87 20.15,-229.48 1.51,-29.02 6.35,-57.86 8.26,-86.89 0.54,-13.21 0.94,-26.74 0.94,-40.03 0,-21.59 -0.8,-43.54 -2.39,-65.01l-12.33 -236.12c-3.53,-64.26 33.14,-127.17 30.22,-191.35 -1.98,-29.81 -6.72,-59.65 -13.83,-88.85 -2.22,-9.91 -4.54,-19.74 -7.66,-29.38 -22.16,-67.69 -85.93,-117.17 -146.87,-161.61 -5.53,-5.13 -13.18,-8.03 -21.15,-8.03 -1.99,0 -3.98,0.18 -5.92,0.53l0 0.01z"/>
  <path class="fil9" d="M15818.56 19202.3c0.81,63.09 -24.58,124.11 -49.46,183.32 -7.66,18.03 -17.02,38.04 -36.57,46.42 -19.54,8.38 -41.4,2.97 -60.44,-3.7 -17.71,-6 -35.08,-13.19 -51.67,-21.37 -17.53,-9.01 -37.27,-18.66 -56.11,-12.89 -23.06,7.03 -30.22,32.72 -33.34,54.08 -2.7,-0.01 -5.59,0.06 -8.32,0.06 -28.71,0 -57.51,-1.75 -85.91,-5.17 -2.89,-0.17 -5.74,-0.98 -8.23,-2.36 -3.07,-2.67 -4.94,-6.27 -5.24,-10.09 -3.22,-15.06 -6.55,-30.02 -10.07,-45.07 -1.01,-4.69 -4.84,-10.9 -10.08,-9.01 4.23,-58.41 -9.37,-116.54 -14.3,-174.86 -1.27,-13.2 -1.9,-26.45 -1.9,-39.7 0,-16.36 1.01,-32.84 2.91,-49.08 4.59,-29.38 10.92,-58.88 18.9,-87.65 15.52,-61.83 45.33,-124.65 47.05,-187.38 0.05,-1.75 0.1,-3.56 0.1,-5.29 0,-10.86 -0.95,-21.71 -2.8,-32.44 -14.23,-78.64 -28.39,-157.36 -42.5,-236.13 -3.63,-19.65 -7.15,-39.48 -12.29,-58.85 -3.83,-14.42 -7.46,-28.39 -11.59,-42.27 -2.51,-8.48 -5.24,-16.86 -8.36,-25.33 26.87,-66.1 53.73,-132.19 80.59,-198.29 6.11,-16.25 13.57,-32.18 22.17,-47.49 20.2,-33.94 51.72,-61.47 90.14,-78.71 11.46,-3.88 21.81,-10.05 30.23,-18.02 3.93,-4.59 6.35,-10.18 10.07,-14.96 14.21,-18.03 43.32,-19.47 67.6,-15.5 22.26,3.51 45.33,11.08 58.83,27.04 5.33,7.29 9.69,15.19 12.89,23.43 16.12,34.98 32.31,69.92 48.56,104.83 13.8,5.95 20.15,22.08 20.15,36.05 0,25.96 -4.13,51.83 -2.92,77.79 0,1.89 0,3.69 0.6,5.58 3.63,23.35 22.06,43 28.31,66.43 23.97,89.68 -10.98,181.97 -31.53,272.65 -0.81,3.6 -1.61,7.12 -2.32,10.72 -10.68,50.26 -16.15,101.87 -16.15,153.16 0,2.2 0,4.41 0,6.61 0.03,0.43 0.03,0.87 0.03,1.27 0,21.8 1.8,43.77 5.23,65.3 3.32,19.38 8.66,38.49 11.08,58.04 1.09,13.47 1.75,27.24 1.75,40.81 0,13.57 -0.66,27.34 -1.76,40.84 -2.8,48.76 6.06,97.88 6.67,147.18z"/>
  <path class="fil9" d="M15901.56 18429.79c7.06,10.98 11.01,23.37 11.48,36.04 -0.04,5.46 -2.18,10.74 -6.04,14.96 -4.68,4.02 -10.92,6.26 -17.41,6.26 -1.91,0 -3.81,-0.2 -5.66,-0.58 -8.06,-1.66 -15.71,-4.73 -22.46,-9.01 -9.14,-4.37 -16.61,-11.1 -21.46,-19.29 -1.62,-3.89 -2.71,-7.96 -3.22,-12.07l-5.34 -30.47c-0.78,-2.95 -1.19,-5.98 -1.19,-9.01 0,-3.04 0.41,-6.06 1.19,-9.01 4.53,-12.53 24.88,-34.7 40.29,-23.89 15.41,10.82 22.27,41.65 29.82,56.07z"/>
  <path class="fil9" d="M16491.26 18479.9c-5.94,-13.88 -23.67,-19.74 -38.18,-27.04 -30.22,-15.06 -51.17,-41.37 -67.08,-68.77 -15.92,-27.41 -27.81,-56.61 -45.03,-83.29 -2.62,-4.87 -6.58,-9.09 -11.48,-12.26 -2.29,-1.35 -4.96,-2.07 -7.7,-2.07 -3.31,0 -6.52,1.05 -9.03,2.98 -2.13,2.47 -3.43,5.44 -3.73,8.56 -3.62,19.92 2.72,40.02 6.15,59.94 1.8,11.04 2.69,22.28 2.69,33.46 0,57.47 -23.75,113 -66.56,155.81 -20.85,20.64 -46.74,38.76 -57.92,64.72 -4.87,14.33 -7.35,29.27 -7.35,44.27 0,6.29 0.46,12.58 1.31,18.81l6.96 115.01c0.84,17.55 1.43,35.33 1.43,52.98 0,99.26 -15.27,198.39 -45.23,293.94 -20.15,64.89 -54.2,130.41 -40.29,196.57 5.24,25.33 17.53,50.48 12.49,75.89 -0.83,2.4 -1.24,4.9 -1.24,7.4 0,2.5 0.41,4.99 1.2,7.38 2.38,3.61 5.88,6.53 10.08,8.39l66.99 39.12 60.44 -160.16c5.57,-13.64 10.14,-27.7 13.41,-41.91 2.56,-15.65 3.92,-31.53 3.92,-47.37 0,-0.58 0,-1.25 0,-1.84 4.07,-143.86 25.05,-287.44 62.19,-427.47 4.58,-20.31 11.38,-40.18 20.11,-59.25 17.43,-35.06 46.75,-64.08 75.65,-92.56 0.71,-13.25 -1.21,-26.5 0,-39.84 0.13,-23.22 3.85,-46.35 10.99,-68.67 7.84,-21.91 21.35,-43 44.81,-52.73z"/>
  <path class="fil9" d="M16389.62 18629.52c-0.92,14.79 -1.37,29.79 -1.37,44.7 0,23.05 1.22,46.2 3.33,69.15l10.08 150.87c0.17,20.18 3.61,40.23 10.03,59.56 8.06,20.55 22.97,38.58 30.73,59.31 2.62,7.03 4.43,14.42 7.05,21.54 3.32,9.02 7.86,16.86 12.09,25.24 27.19,55.07 34.65,116.18 36.56,176.29 1.91,60.12 -1.51,120.42 5.34,180.27 -10.59,2.62 -21.57,3.96 -32.55,3.96 -7.01,0 -14.06,-0.54 -20.95,-1.62 -6.5,-1.61 -13.24,-2.44 -19.99,-2.44 -0.05,0 -0.11,0 -0.16,0 -5.82,0.73 -11.54,2.2 -16.92,4.34 -18.92,6.08 -38.95,9.22 -59.09,9.22 -30.63,0 -60.77,-7.24 -87.28,-20.95 -13.13,-7.25 -25.72,-15.51 -37.38,-24.51 -9.92,-6.77 -18.6,-14.97 -25.57,-24.24 -7.61,-12.94 -11.61,-27.38 -11.61,-42.01 0,-0.59 0.01,-1.22 0.02,-1.8 -2.32,-61.2 20.15,-120.69 35.36,-180.26 13.18,-57.45 23.93,-116.36 30.33,-174.87 11.18,-85.89 8.16,-174.22 30.22,-258.49 1.93,-12.1 7.5,-23.64 16,-33.34 7.5,-6.44 16.34,-11.53 26,-14.96 19.64,-8.56 39.69,-16.67 59.73,-24.96z"/>
  <path class="fil2" d="M16491.26 18479.9c-5.94,-13.88 -23.67,-19.74 -38.18,-27.04 -30.22,-15.06 -51.17,-41.37 -67.08,-68.77 -15.92,-27.41 -27.81,-56.61 -45.03,-83.29 -2.62,-4.87 -6.58,-9.09 -11.48,-12.26 -2.29,-1.35 -4.96,-2.07 -7.7,-2.07 -3.31,0 -6.52,1.05 -9.03,2.98 -2.13,2.47 -3.43,5.44 -3.73,8.56 -3.62,19.92 2.72,40.02 6.15,59.94 1.8,11.04 2.69,22.28 2.69,33.46 0,57.47 -23.75,113 -66.56,155.81 -20.85,20.64 -46.74,38.76 -57.92,64.72 -4.87,14.33 -7.35,29.27 -7.35,44.27 0,6.29 0.46,12.58 1.31,18.81l6.96 115.01c0.84,17.55 1.43,35.33 1.43,52.98 0,99.26 -15.27,198.39 -45.23,293.94 -20.15,64.89 -54.2,130.41 -40.29,196.57 5.24,25.33 17.53,50.48 12.49,75.89 -0.83,2.4 -1.24,4.9 -1.24,7.4 0,2.5 0.41,4.99 1.2,7.38 2.38,3.61 5.88,6.53 10.08,8.39l66.99 39.12 60.44 -160.16c5.57,-13.64 10.14,-27.7 13.41,-41.91 2.56,-15.65 3.92,-31.53 3.92,-47.37 0,-0.58 0,-1.25 0,-1.84 4.07,-143.86 25.05,-287.44 62.19,-427.47 4.58,-20.31 11.38,-40.18 20.11,-59.25 17.43,-35.06 46.75,-64.08 75.65,-92.56 0.71,-13.25 -1.21,-26.5 0,-39.84 0.13,-23.22 3.85,-46.35 10.99,-68.67 7.84,-21.91 21.35,-43 44.81,-52.73z"/>
  <path class="fil8" d="M16416.62 19426.73c-2.16,6.77 -6.78,12.73 -13.1,16.94 -6.75,3.42 -17.73,0.54 -18.33,-6.4 -11.28,-1.36 -20.15,10.54 -31.02,11.35 -10.88,0.81 -20.95,-9.01 -31.63,-6.85 -6.85,1.62 -13.3,8.11 -19.55,5.23 -2.62,-1.17 -4.23,-3.7 -6.95,-4.59 -4.33,-1.26 -8.46,2.34 -12.89,3.24 -9.37,1.9 -16.22,-8.38 -16.52,-16.94 -0.31,-8.56 2.51,-18.03 -1.92,-25.42 -0.54,-1.26 -1.58,-2.29 -2.92,-2.89 -3.02,-1.26 -6.35,1.26 -8.36,3.7 -7.46,9.01 -9.57,21.54 -17.13,30.91 -7.55,9.37 -25.58,13.79 -32.43,4.06 -1.62,-3.07 -2.46,-6.42 -2.46,-9.82 0,-2.2 0.35,-4.39 1.05,-6.5 4.53,-23.07 14.6,-47.86 37.77,-58.67 20.15,-9.02 44.33,-5.59 66.49,-1.45 30.82,6.02 61.61,12.24 92.37,18.67 8.16,1.71 27.7,2.61 31.23,11.08 3.53,8.48 -10.48,27.13 -13.7,34.35z"/>
  <path class="fil1" d="M16053.77 17837.89c10.08,48.59 41.1,91.4 65.98,135.65 24.89,44.26 44.73,94.55 31.23,142.5 -5.74,16.44 -12.57,32.78 -20.14,48.58 -9.95,28.1 -16.97,57.12 -20.73,86.37 -6.64,39.84 -13.29,80.3 -7.95,120.32 5.34,40.02 24.38,80.22 60.44,104.56l-2.82 -18.03c15.22,7.19 29.6,16.05 42.59,26.2 14.41,-22.82 24.65,-47.7 30.2,-73.45l68.4 47.5c30.22,20.73 64.07,42.54 101.54,38.4l-30.22 -62.28c-8.36,-17.31 -16.72,-34.52 -26.59,-51.2 -6.65,-9.84 -12.17,-20.33 -16.32,-31.2 -2.58,-9.43 -4.09,-19.13 -4.44,-28.84 -11.84,-158.9 -45.32,-317.01 -98.83,-468.75 -10.72,-34.73 -26.82,-68.21 -47.72,-99.08 -10.25,-14.54 -23.79,-27.04 -39.71,-36.67 -25.08,-14.34 -55.9,-17.4 -85.52,-20.1 -12.26,-1.57 -24.69,-2.35 -37.09,-2.35 -8.41,0 -16.91,0.41 -25.25,1.1 -21.15,3.09 -41.62,9.4 -60.45,18.56 -59.65,27.24 -108.49,70.59 -139.42,123.75 -20.84,35.29 -31.78,74.68 -31.78,114.6 0,3.51 0.1,7.13 0.27,10.6 3.92,45.97 52.88,25.05 85.92,13.61 81.79,-28.58 160.36,-72.93 208.41,-140.35z"/>
  <path class="fil2" d="M15901.56 18429.79c7.06,10.98 11.01,23.37 11.48,36.04 -0.04,5.46 -2.18,10.74 -6.04,14.96 -4.68,4.02 -10.92,6.26 -17.41,6.26 -1.91,0 -3.81,-0.2 -5.66,-0.58 -8.06,-1.66 -15.71,-4.73 -22.46,-9.01 -9.14,-4.37 -16.61,-11.1 -21.46,-19.29 -1.62,-3.89 -2.71,-7.96 -3.22,-12.07l-5.34 -30.47c-0.78,-2.95 -1.19,-5.98 -1.19,-9.01 0,-3.04 0.41,-6.06 1.19,-9.01 4.53,-12.53 24.88,-34.7 40.29,-23.89 15.41,10.82 22.27,41.65 29.82,56.07z"/>
  <polygon class="fil9" points="15964.52,18114.6 15926.75,18367.78 16092.76,18358.76 16146.75,18114.6 "/>
  <ellipse class="fil10" cx="16046.22" cy="18189.95" rx="12.59" ry="11.27"/>
  <g id="_1856145224128">
   <path class="fil2" d="M16155.31 18085.58c1.72,-4.42 3.23,-9.02 4.54,-13.34 13.4,-48.04 -6.45,-98.34 -31.33,-142.59 -24.89,-44.25 -55.51,-86.98 -65.88,-135.65 -48.05,67.42 -126.42,111.76 -208.32,140.25 -33.04,11.44 -82.1,32.26 -86.03,-13.61 -0.46,-5.11 -0.71,-10.26 -0.71,-15.38 0,-5.11 0.25,-10.27 0.7,-15.36 -6.31,19.4 -9.55,39.58 -9.55,59.81 0,4.53 0.18,9.12 0.5,13.63 3.93,45.97 52.89,25.06 85.93,13.61 81.99,-28.39 160.27,-72.74 208.32,-140.16 10.07,48.59 41.1,91.4 65.98,135.2 20.14,35.71 36.76,74.83 35.85,113.59z"/>
   <path class="fil2" d="M16309.94 18414.28c-22.83,-15.74 -45.63,-31.57 -68.4,-47.49 -5.49,25.8 -15.76,50.67 -30.22,73.54 -12.98,-10.21 -27.32,-19.07 -42.61,-26.31l2.82 18.02c-35.86,-24.33 -54.9,-64.53 -60.44,-104.55 -5.54,-40.02 1.21,-80.49 7.86,-120.32 0.71,-4.33 1.51,-9.02 2.22,-12.98 -4.74,18.02 -7.86,37.04 -10.98,55.7 -6.65,39.92 -13.3,80.3 -7.96,120.32 5.34,40.02 24.38,80.22 60.44,104.56l-2.82 -18.03c15.22,7.28 29.6,16.14 42.61,26.31 14.42,-22.81 24.68,-47.74 30.23,-73.47 22.83,15.81 45.62,31.65 68.39,47.52 30.22,20.64 64.07,42.54 101.54,38.39l-21.76 -45.06c-25.69,-5.68 -49.46,-21.19 -70.92,-36.15z"/>
  </g>
  <path class="fil8" d="M15873.46 18249.35c15.66,-18.68 34.75,-35.01 56.31,-48.14 2.91,-1.91 6.42,-2.95 10.03,-2.95 0.52,0 1.04,0.02 1.56,0.06 3.22,0.63 5.94,2.8 9.26,3.34 0.44,0.03 0.89,0.04 1.33,0.04 3.36,0 6.67,-0.82 9.55,-2.38l46.54 -20.01c6.8,-3.48 14.44,-5.46 22.26,-5.77 0.02,0 0.05,0 0.07,0 8.11,0 15,5.34 16.15,12.53 0,7.75 -8.56,12.97 -16.22,16.85 -23.04,11.76 -44.99,25.41 -65.29,40.72 -10.08,8.02 -21.56,21.27 -13.7,31.54 5.68,5.1 13.37,7.95 21.39,7.95 1.41,0 2.82,-0.09 4.22,-0.26 3.21,0.14 6.49,0.21 9.73,0.21 13.64,0 27.25,-1.24 40.62,-3.64 13.3,-2.97 25.79,-8.29 39.19,-11.08 12.29,-2.2 24.83,-3.34 37.37,-3.34 1.52,-0.21 3.06,-0.31 4.59,-0.31 5.84,0 11.57,1.51 16.47,4.36 5.54,4.24 5.04,14.42 -2.12,15.69 10.08,11.98 1.21,29.65 -11.99,38.66 -13.2,9.02 -30.22,12.71 -44.02,20.37 16.12,-5.13 35.16,-10.09 49.47,-1.62 2.15,1.12 3.77,2.93 4.53,5.05 0.91,4.24 -4.13,7.48 -8.56,9.02 -66.09,27.57 -144.36,18.02 -213.56,38.48 -29.27,8.68 -56.34,22.68 -79.38,41.01 10.77,-9.01 -55.61,-72.1 -49.87,-90.13 4.63,-14.78 37.98,-33.62 50.37,-45.06 18.54,-16.17 36.44,-33.23 53.7,-51.19z"/>
  <path class="fil2" d="M15870.94 18535.87c-0.28,2 -0.43,4.02 -0.43,6.04 0,6.21 1.35,12.36 3.96,18.11 5.44,20.37 -2.52,41.73 -13.5,60.3 -12.67,21.02 -28.61,40.43 -47.16,57.6 -21.99,20.34 -45.82,39.28 -71.09,56.39 -49.41,34.62 -101.56,66.73 -155.21,95.67 -13.48,8.42 -28.72,14.4 -44.77,17.65 -5.5,0.62 -11.08,0.93 -16.64,0.93 -7,0 -14.02,-0.5 -20.92,-1.47 -16.75,-1.28 -33.3,-4.31 -49.26,-9.01 0.01,-1.71 0.07,-3.52 0.07,-5.25 0,-10.86 -0.96,-21.71 -2.81,-32.44 -14.23,-78.64 -28.4,-157.35 -42.5,-236.13 -3.63,-19.65 -7.15,-39.48 -12.29,-58.85 -3.82,-14.42 -7.45,-28.39 -11.58,-42.27 0,0 0,-0.73 0,-1 10.07,-22.71 39.58,-37.13 42.51,-61.29 42.61,-3.6 82.6,-7.84 125.31,-11.35 1.97,12.06 2.97,24.32 2.97,36.52 0,23.72 -3.76,47.41 -11.12,70.18 0.39,0.03 0.79,0.05 1.19,0.05 6.3,0 12,-3.4 14.42,-8.6 3.12,-5.14 4.13,-11.09 6.75,-16.5 10.07,-20.55 39.59,-25.42 60.44,-37.31 36.67,-20.38 52.48,-64.54 91.97,-79.86 2.13,-1.05 4.52,-1.61 6.96,-1.61 0.77,0 1.54,0.06 2.3,0.17 8.66,2.07 10.08,15.68 19.44,15.14 2.89,-0.49 5.51,-1.82 7.46,-3.78 16.12,-13.07 36.26,-23.89 52.28,-36.87 2.22,3.88 4.33,7.75 6.45,11.63 22.43,40.62 44.83,81.27 67.19,121.95 8.76,15.87 18.53,32.72 35.96,41.1 -6.75,18.03 -42,15.86 -48.35,34.16z"/>
  <path class="fil9" d="M15417.13 18381.84c-2.82,24.24 -32.54,38.66 -42.51,61.37 -3.38,10.18 -5.12,20.77 -5.12,31.39 0,1.97 0.08,3.96 0.18,5.92 -1.01,36.05 -10.07,70.48 -15.11,105.73 -5.04,35.24 -6.05,72.1 8.46,105.27 8.67,19.65 22.57,37.49 28.51,57.95 4.03,13.71 4.34,28.49 11.49,41.1 15.61,27.04 55.4,34.07 89.55,37.41 6.91,0.97 13.92,1.47 20.92,1.47 5.56,0 11.15,-0.31 16.66,-0.93 16.05,-3.25 31.33,-9.25 44.91,-17.57 53.56,-29.03 105.85,-61 155.12,-95.67 46.04,-32.18 90.67,-67.87 118.27,-114.01 10.98,-18.57 18.94,-39.93 13.6,-60.3 -2.73,-5.7 -4.1,-11.79 -4.1,-17.91 0,-2.11 0.17,-4.22 0.48,-6.3 6.35,-18.03 41.51,-16.13 49.16,-34.07 -17.42,-8.29 -27.2,-25.14 -35.86,-41.01l-73.63 -133.66c-16.12,13.06 -36.27,23.88 -52.29,36.95 -2,1.94 -4.64,3.27 -7.55,3.78 -8.97,0.55 -10.78,-13.06 -19.44,-15.14 -0.77,-0.11 -1.54,-0.16 -2.31,-0.16 -2.39,0 -4.75,0.52 -6.86,1.51 -39.59,15.41 -55.4,59.58 -92.07,79.95 -21.36,11.9 -50.37,16.76 -60.44,37.31 -2.62,5.32 -3.63,11.36 -6.75,16.5 -2.29,5.44 -8.11,9.04 -14.61,9.04 -0.33,0 -0.67,-0.01 -1,-0.03 7.38,-22.75 11.15,-46.4 11.15,-70.11 0,-12.24 -0.99,-24.52 -2.98,-36.6 -43.13,3.07 -83.12,7.3 -125.83,10.82z"/>
  <path class="fil9" d="M16413.1 19420.69c2.71,-0.91 5.44,-1.9 8.16,-2.62 7.03,-5.68 11.06,-13.76 11.06,-22.25 0,-3.47 -0.68,-6.93 -2,-10.2 -3.53,-8.47 -23.07,-9.01 -31.23,-11.08 -30.76,-6.61 -61.55,-12.8 -92.37,-18.57 -22.16,-4.24 -46.44,-7.93 -66.49,1.35 -7.45,3.52 -13.6,15.23 -18.63,21.19l7.75 5.94c8.36,6.22 16.93,12.35 25.79,18.03 1.21,-1.34 3.02,-2.11 4.93,-2.11 0.58,0 1.16,0.07 1.72,0.21 1.34,0.6 2.38,1.63 2.92,2.88 1.05,1.78 1.77,3.7 2.12,5.68 26.43,13.67 56.45,20.87 86.97,20.87 20.21,0 40.31,-3.18 59.29,-9.33l0.01 0.01z"/>
  <path class="fil1" d="M19946.47 17761.82l0 770.08c0,22.89 -47.95,41.55 -107.28,41.55l-2271.97 0.01c-59.34,0 -107.39,-18.66 -107.39,-41.55l0 -770.09c0,-22.98 48.05,-46.32 107.39,-46.32l2272.07 0c59.33,0 107.18,23.34 107.18,46.32z"/>
  <rect class="fil3" x="18551.19" y="17990.76" width="1183.44" height="37.4"/>
  <polygon class="fil11" points="18551.19,18119.2 19734.63,18119.2 19734.63,18081.79 18551.19,18081.79 "/>
  <polygon class="fil11" points="18551.19,18210.32 19734.63,18210.32 19734.63,18172.91 18551.19,18172.91 "/>
  <polygon class="fil11" points="18551.19,18301.44 19734.63,18301.44 19734.63,18264.03 18551.19,18264.03 "/>
  <path class="fil11" d="M17952.42 17908.56c-0.04,-0.01 -0.14,-0.01 -0.18,-0.01 -154.91,0 -280.54,112.41 -280.54,251.02 0,84.36 47.4,163.12 126.11,209.55l0 -42.55c0.1,-28.78 24.16,-53 56.09,-56.5 19.31,32.15 56.82,52.22 97.62,52.22 40.8,0 78.31,-20.07 97.62,-52.22 31.94,3.49 56.04,27.7 56.2,56.51l0 43.63c79.64,-46.3 127.71,-125.57 127.71,-210.55 0,-138.66 -125.64,-251.11 -280.61,-251.11l-0.02 0.01zm276.32 768.09c-0.95,1.63 -2.21,3.09 -3.72,4.33 -2.43,1.45 -5.25,2.3 -8.16,2.43 -0.93,0.04 -1.89,0.07 -2.82,0.07 -0.94,0 -1.9,-0.03 -2.83,-0.07 -13.95,42.35 -57.42,71.46 -106.78,71.46 -61.46,0 -111.31,-44.6 -111.31,-99.59 0,-0.05 0,-0.13 0,-0.17 0,-0.06 0,-0.15 0,-0.21 0,-17.12 5.01,-33.97 14.51,-48.82 -0.42,-0.22 -0.83,-0.46 -1.21,-0.73 -14,-10.36 -10.08,-37.4 3.63,-46.05 7.18,-3.61 14.97,-6.19 23.06,-7.57 24.33,-6.34 45.19,-20.59 58.43,-39.93 0.08,1.49 0.14,3.04 0.14,4.55 0,3.54 -0.26,7.08 -0.75,10.59 4.68,-4.57 11.3,-7.18 18.23,-7.18 6.34,0 12.45,2.19 17.03,6.1 2.92,3.69 6.31,7.09 10.08,10.09 3.82,1.91 8.11,3 12.49,3.16l27.9 3.24c1.11,-0.07 2.25,-0.12 3.36,-0.12 18.43,0 34.51,11.19 39.05,27.17 8.24,16.96 14.44,34.73 18.32,52.91 -25.91,8.22 -53.27,12.44 -80.78,12.44 -133.34,0 -241.47,-96.75 -241.47,-216.06 0,-91.44 64.38,-173.03 160.7,-203.6l152.9 461.56z"/>
  <path class="fil1" d="M19946.47 15601.57l0 770.16c0,22.9 -47.95,41.55 -107.28,41.55l-2271.97 0.01c-59.34,0 -107.39,-18.66 -107.39,-41.55l0 -770.17c0,-22.9 48.05,-46.33 107.39,-46.33l2272.07 0c59.33,0.09 107.18,23.43 107.18,46.33z"/>
  <rect class="fil3" x="18551.19" y="15830.5" width="1183.44" height="37.4"/>
  <polygon class="fil11" points="18551.19,15959.03 19734.63,15959.03 19734.63,15921.62 18551.19,15921.62 "/>
  <polygon class="fil11" points="18551.19,16050.15 19734.63,16050.15 19734.63,16012.74 18551.19,16012.74 "/>
  <polygon class="fil11" points="18551.19,16141.18 19734.63,16141.18 19734.63,16103.78 18551.19,16103.78 "/>
  <path class="fil11" d="M17952.42 15748.39c-0.04,0 -0.14,0 -0.18,0 -154.91,0 -280.54,112.41 -280.54,251.02 0,84.36 47.4,163.12 126.11,209.55l-0.01 -42.54c0.07,-28.81 24.15,-53.06 56.11,-56.51 19.3,32.15 56.81,52.22 97.61,52.22 40.8,0 78.31,-20.07 97.62,-52.22 31.98,3.45 56.09,27.68 56.2,56.51l0 43.53c79.68,-46.29 127.8,-125.53 127.8,-210.54 0,-138.61 -125.63,-251.02 -280.55,-251.02 -0.03,0 -0.14,0 -0.17,0l0 0zm276.32 768.01c-0.89,1.65 -2.16,3.13 -3.72,4.32 -2.41,1.5 -5.24,2.35 -8.16,2.44 -0.93,0.04 -1.89,0.07 -2.82,0.07 -0.94,0 -1.9,-0.03 -2.83,-0.07 -13.95,42.35 -57.42,71.46 -106.78,71.46 -61.46,0 -111.31,-44.6 -111.31,-99.59 0,-0.03 0,-0.05 0,-0.08 0,-0.09 0,-0.19 0,-0.28 0,-17.1 5.02,-33.91 14.51,-48.75l-1.21 -0.72c-14.01,-10.46 -10.08,-37.4 3.62,-46.06 7.15,-3.65 14.98,-6.22 23.08,-7.57 24.35,-6.36 45.21,-20.64 58.42,-40.02 0.08,1.5 0.14,3.06 0.14,4.58 0,3.55 -0.25,7.14 -0.74,10.65 4.69,-4.58 11.32,-7.2 18.27,-7.2 6.31,0 12.38,2.16 16.98,6.03 2.89,3.71 6.29,7.11 10.08,10.1 3.84,1.9 8.11,3.01 12.49,3.24l27.9 3.15c11.57,0.28 22.73,3.89 31.84,10.27 4.78,4.91 8.39,10.66 10.57,16.86 8.26,17.02 14.46,34.8 18.35,53 -25.95,8.19 -53.29,12.44 -80.81,12.44 -133.39,0 -241.57,-96.79 -241.57,-216.14 0,-91.48 64.44,-173.1 160.79,-203.68l152.91 461.55z"/>
  <path class="fil1" d="M18818.24 16677.19l0 770.17c0,22.89 -48.05,41.46 -107.38,41.46l-2272.38 0c-59.23,0 -107.28,-18.57 -107.28,-41.46l0 -770.17c0,-22.98 48.05,-46.33 107.28,-46.33l2272.08 0c59.33,0 107.68,23.35 107.68,46.33z"/>
  <rect class="fil3" x="17422.46" y="16906.12" width="1183.44" height="37.4"/>
  <path class="fil11" d="M16823.69 16823.92c-154.96,0 -280.6,112.45 -280.6,251.1 0,84.28 47.32,163.03 125.88,209.48l-0.01 -16.68c0.07,-28.81 24.15,-53.06 56.11,-56.52 19.56,31.89 57.01,51.72 97.66,51.72 40.66,0 78.1,-19.83 97.66,-51.71 31.97,3.45 56.05,27.7 56.11,56.51l0 18.02c80.03,-46.22 128.43,-125.68 128.43,-210.9 0,-138.61 -125.63,-251.01 -280.55,-251.01 -0.21,0 -0.48,0 -0.69,0l0 -0.01zm262.82 780.27c0,54.74 -49.63,99.13 -110.81,99.13 -61.19,0 -110.81,-44.39 -110.81,-99.14 -7.23,-14.19 -10.98,-29.64 -10.98,-45.25 0,-43.97 29.52,-83.68 74.84,-100.67 -3.88,-5.36 -5.95,-11.63 -5.95,-18.02 0,-18.32 16.6,-33.17 37.07,-33.17 0.04,0 0.08,0 0.12,0l2.61 0c-19.38,1.19 -34.43,15.61 -34.43,33 0,5.78 1.7,11.47 4.92,16.48l1.1 0c-0.46,-2.08 -0.7,-4.2 -0.7,-6.32 0,-0.08 0,-0.17 0,-0.26 0,-0.06 0,-0.13 0,-0.18 0,-6.87 2.44,-13.56 6.95,-19.1 4.74,-13.92 19.1,-23.44 35.36,-23.44 0.03,0 0.07,0 0.1,0l2.62 0c-11.5,0.69 -21.98,6.17 -28.31,14.78 6.06,-3.59 13.18,-5.51 20.45,-5.51 20.47,0 37.07,14.86 37.07,33.17 0,0.03 0,0.07 0,0.1 0.05,0.62 0.08,1.23 0.08,1.85 0,0.62 -0.03,1.23 -0.08,1.85 53.3,12.79 90.37,56.03 90.37,105.41 0,15.62 -3.75,31.08 -10.99,45.28l-0.6 0.01z"/>
  <polygon class="fil11" points="17422.46,17034.65 18605.89,17034.65 18605.89,16997.24 17422.46,16997.24 "/>
  <polygon class="fil11" points="17422.46,17125.68 18605.89,17125.68 18605.89,17088.28 17422.46,17088.28 "/>
  <polygon class="fil11" points="17422.46,17216.8 18605.89,17216.8 18605.89,17179.4 17422.46,17179.4 "/>
 </g>
</svg>
