<?xml version="1.0" encoding="UTF-8"?>
<!DOCTYPE svg PUBLIC "-//W3C//DTD SVG 1.1//EN" "http://www.w3.org/Graphics/SVG/1.1/DTD/svg11.dtd">
<!-- Creator: CorelDRAW 2019 (64-Bit) -->
<svg xmlns="http://www.w3.org/2000/svg" xml:space="preserve" width="210mm" height="297mm" version="1.1" style="shape-rendering:geometricPrecision; text-rendering:geometricPrecision; image-rendering:optimizeQuality; fill-rule:evenodd; clip-rule:evenodd"
viewBox="0 0 21000 29700"
 xmlns:xlink="http://www.w3.org/1999/xlink"
 xmlns:xodm="http://www.corel.com/coreldraw/odm/2003"
 data-name="Layer 1">
 <defs>
  <style type="text/css">
   <![CDATA[
    .fil9 {fill:#192534}
    .fil8 {fill:#2F2E41}
    .fil6 {fill:#38364D}
    .fil1 {fill:#3F3D56}
    .fil4 {fill:#57B894}
    .fil3 {fill:#6C63FF}
    .fil7 {fill:#9B9BB1}
    .fil0 {fill:#F2F2F2}
    .fil5 {fill:#FFC1C7}
    .fil2 {fill:black;fill-opacity:0.101961}
   ]]>
  </style>
 </defs>
 <g id="Layer_x0020_1">
  <metadata id="CorelCorpID_0Corel-Layer"/>
  <g id="_1856286004672">
   <path class="fil0" d="M10744.18 18137.65l-963.41 455.97 852.66 -637.58c-138.02,-215.8 -294.86,-421.99 -465.8,-612.9l-4177.97 1038.79 3774.1 -1439.68c-172.2,-151.51 -356.03,-291.88 -548.1,-417.58l-6366.56 1025.33c-675.65,845.01 -1044.97,1895.29 -1044.97,2977.61l9583.46 0.05c0,-839.1 -222.99,-1664.66 -643.33,-2390.08l-0.08 0.07z"/>
   <path class="fil0" d="M8694.65 16228.47c-651.21,-317.52 -1367.26,-482.98 -2092.04,-482.98 -1.75,0 -5.24,0 -6.98,0 -1480.17,0 -2803.51,671.16 -3682.48,1725.7 1505.38,-329.79 4125.97,-900.68 5781.5,-1242.72z"/>
   <path class="fil1" d="M9406.69 20420.62c-132.27,-22.41 -259.46,-41.65 -381.6,-57.73l48.28 -93.62c-16.28,-5.65 -87.81,47.96 -87.81,47.96l63.36 -271.74c-81.89,9.88 -123.51,287.33 -123.51,287.33l-91.49 -93.81 44.29 105.47c-319.74,-38.38 -645.61,-60.03 -968.39,-61.06l41.32 -80.12c-16.28,-5.65 -87.8,47.95 -87.8,47.95l63.35 -271.73c-81.88,9.87 -123.51,287.33 -123.51,287.33l-91.48 -93.81 46.91 111.7c-184.87,2.7 -371.45,15.97 -556.03,37.89 41.8,-124.82 183.8,-243.53 183.8,-243.53 -108.44,32.25 -165.32,86.29 -195.04,136.68 -0.45,-7.57 -0.45,-15.05 -0.45,-22.53 0,-249.83 43.02,-498.59 126.65,-733.72 83.62,-235.13 -224.15,487.75 -195.54,815.14l3.42 58.14c-190.02,27.21 -285.55,55.51 -285.55,55.51l2566.82 32.3z"/>
   <path class="fil1" d="M6441.58 20403.17c-132.27,-22.42 -259.47,-41.66 -381.61,-57.74l48.28 -93.61c-16.28,-5.65 -87.8,47.95 -87.8,47.95l63.36 -271.74c-81.89,9.88 -123.52,287.34 -123.52,287.34l-91.48 -93.82 44.29 105.47c-319.73,-38.38 -645.6,-60.03 -968.38,-61.06l41.33 -80.12c-16.28,-5.65 -87.81,47.96 -87.81,47.96l63.36 -271.74c-81.89,9.88 -123.52,287.33 -123.52,287.33l-91.48 -93.81 46.91 111.7c-184.87,2.71 -371.44,15.98 -556.03,37.9 41.8,-124.82 183.8,-243.53 183.8,-243.53 -108.44,32.25 -165.32,86.29 -195.04,136.68 -0.45,-7.57 -0.45,-15.05 -0.45,-22.53 0,-249.83 43.02,-498.59 126.64,-733.72 83.63,-235.13 -224.14,487.75 -195.54,815.14l3.43 58.14c-190.03,27.21 -285.56,55.51 -285.56,55.51l2566.82 32.3z"/>
   <path class="fil1" d="M9646.09 20508.41c0,148.8 -1382.86,596.57 -3088.69,596.57 -1705.84,0 -3088.7,-447.77 -3088.7,-596.57 0,-148.79 1382.86,57.74 3088.7,57.74 1705.83,0 3088.69,-206.53 3088.69,-57.74z"/>
   <path class="fil2" d="M9646.09 20508.41c0,148.8 -1382.86,596.57 -3088.69,596.57 -1705.84,0 -3088.7,-447.77 -3088.7,-596.57 0,-148.79 1382.86,57.74 3088.7,57.74 1705.83,0 3088.69,-206.53 3088.69,-57.74z"/>
   <ellipse class="fil1" cx="6557.4" cy="20508.41" rx="3088.68" ry="269.41"/>
   <path class="fil2" d="M9347.8 20441.06c0,-85.02 -1169.61,-153.95 -2612.4,-153.95 -1442.78,0 -2612.39,68.93 -2612.39,153.95 0,85.02 1169.61,153.95 2612.39,153.95 1442.79,0 2612.4,-68.93 2612.4,-153.95z"/>
   <path class="fil1" d="M4958.54 20193.15l294.74 -418.01 -295.17 463.67 -0.46 47.76c-20.84,-0.3 -41.46,-1.1 -61.87,-2.41l27.76 -613.46 -0.28 -4.74 0.54 -0.91 2.64 -57.97 -302.42 -460.61 303.02 417.2 0.84 12.29 20.96 -463.49 -259.48 -476.36 262.04 394.9 18.46 -960.79 0.09 -3.19 0.01 3.14 1.15 757.58 252.79 -302.12 -253.44 367.37 -3.82 414.91 235.33 -399.8 -235.85 460.81 -2.11 230.71 341.67 -556.63 -342.46 637.11 -4.68 513.04z"/>
   <path class="fil1" d="M7836.17 20349.29l760.86 0 -252.73 -408.49 -178.06 -14.84 104.33 -104.32 -635.81 -1027.65 0 -167.83 -85.5 0 -518.71 -1241.99 89.52 -123.09 -89.51 -67.13 -49.7 0.01 -290.39 -2635.05 43.58 0 67.13 -190.21 0 -369.24 -89.52 0 0 -179.03 -111.89 0 0 -346.86 -22.37 0 0 -335.67 -22.39 0 0 335.67 -33.56 0 0 346.86 -100.7 0 0 179.03 -100.7 0 0 369.24 78.33 190.21 45.25 0 -217.77 2635.05 -0.92 0 -145.45 44.76 78.32 134.27 5.6 11.19 -5.6 -0.01 -435.45 1241.99 -112.82 0 11.19 167.84 -939.88 1555.29 772.04 0 0 -179.03 -44.76 0c0,0 145.45,-984.65 1197.23,-1074.16 1074.15,-22.37 1275.56,1051.78 1275.56,1051.78l-44.75 0 0 201.41zm524.03 -363.65l29.83 104.43 -134.27 -89.51 104.44 -14.92zm-164.11 29.83l164.11 104.44 -179.03 -14.92 14.92 -89.52zm-193.95 104.44l104.44 -119.35 44.76 119.35 -149.2 0zm-174.76 -660.16l38.36 89.51 -166.23 -89.51 127.87 0zm-49.55 -57.54l12.78 -76.73 140.67 89.51 -153.45 -12.78zm239.23 404.4l44.76 104.44 -193.95 -104.44 149.19 0zm-202.47 -78.32l89.51 -102.3 38.37 102.3 -127.88 0zm153.45 -12.79l12.79 -76.72 140.66 89.51 -153.45 -12.79zm153.45 210.46l-59.67 -119.35 164.11 0 -104.44 119.35zm25.58 -223.25l-115.09 -76.72 89.51 -12.79 25.58 89.51zm-38.36 -127.87l-153.45 -12.79 89.51 -89.51 63.94 102.3zm-191.82 -12.79l-51.16 -102.3 140.68 0 -89.52 102.3zm39.96 -172.63l-115.09 -76.72 89.51 -12.79 25.58 89.51zm-38.36 -127.88l-153.45 -12.78 89.51 -89.51 63.94 102.29zm-191.82 -12.78l-51.15 -102.3 140.67 -0.01 -89.52 102.31zm-172.63 -171.04l12.79 -76.72 140.66 89.51 -153.45 -12.79zm121.49 158.25l-166.24 -89.51 127.87 -0.01 38.37 89.52zm57.54 -171.04l-115.1 -76.72 89.52 -12.79 25.58 89.51zm-38.36 -127.87l-153.45 -12.79 89.51 -89.51 63.94 102.3zm-102.3 -115.09l-89.51 102.3 -51.15 -102.3 140.66 0zm-140.66 89.51l-166.24 -89.51 127.87 0 38.37 89.51zm-1256.61 -285.32l231.2 -1029.4 358.05 0 306.03 1029.4 -895.28 0zm786.67 296.51l-166.25 -89.51 127.88 0 38.37 89.51zm-294.12 -22.38l-44.76 51.16 -25.57 -51.16 70.33 0zm-70.33 44.76l-83.12 -44.76 63.93 0 19.19 44.76zm-554.66 -637.78l167.84 -100.7 -44.76 190.21 -123.08 -89.51zm89.51 111.89l-268.54 0 145.45 -89.51 123.09 89.51zm411.84 -3570.19l-47.34 47.34 -47.34 -47.34 94.68 0zm-94.67 -20.65l47.34 -47.34 47.34 47.34 -94.68 0zm94.67 134.27l-94.67 0 47.34 -47.34 47.33 47.34zm-37.87 -56.81l47.34 -47.35 0 94.69 -47.34 -47.34zm45.62 100.7l0 111.89 -55.94 -55.95 55.94 -55.94zm-45.62 -234.97l47.34 -47.34 0 94.67 -47.34 -47.33zm12.05 -123.08l37.3 -37.3 0 74.59 -37.3 -37.29zm29.84 44.76l-74.6 0 37.3 -37.3 37.3 37.3zm-37.3 -52.22l-37.3 -37.3 74.6 0 -37.3 37.3zm-7.46 7.46l-37.3 37.29 0 -74.59 37.3 37.3zm40.74 66.27l-47.34 47.34 -47.34 -47.34 94.68 0zm-56.8 56.81l-47.34 47.34 0 -94.68 47.34 47.34zm0 134.27l-47.34 47.34 0 -94.68 47.34 47.34zm53.36 89.52l-55.94 55.94 -55.95 -55.94 111.89 0zm0 134.26l-111.89 0 55.95 -55.95 55.94 55.95zm11.19 44.76l0 111.88 -55.94 -55.94 55.94 -55.94zm-11.19 -11.19l-55.94 55.94 -55.95 -55.94 111.89 0zm0 134.27l-111.89 0 55.95 -55.95 55.94 55.95zm8.61 54.22l0 137.71 -68.85 -68.85 68.85 -68.86zm-13.77 151.49l-137.71 0 68.85 -68.86 68.86 68.86zm13.77 49.92l0 137.71 -68.85 -68.86 68.85 -68.85zm-13.77 -13.78l-68.86 68.86 -68.85 -68.86 137.71 0zm0 165.26l-137.71 0 68.85 -68.85 68.86 68.85zm10.76 57.24l0 167.83 -83.92 -83.91 83.92 -83.92zm-16.78 184.62l-167.84 0 83.91 -83.92 83.93 83.92zm16.78 61.54l0 167.84 -83.92 -83.92 83.92 -83.92zm-16.78 -16.79l-83.92 83.91 -83.91 -83.91 167.83 0zm0 201.41l-167.84 0 83.91 -83.92 83.93 83.92zm13.76 68.85l0 197.97 -98.97 -98.98 98.97 -98.99zm-19.79 217.76l-197.96 0 98.98 -98.98 98.98 98.98zm17.21 105.01l0 223.78 -111.89 -111.89 111.89 -111.89zm-22.38 246.16l-223.78 0 111.89 -111.89 111.89 111.89zm20.66 92.09l0 240.99 -120.5 -120.49 120.5 -120.5zm-24.1 -24.1l-120.49 120.5 -120.5 -120.5 240.99 0zm0 289.2l-240.99 0 120.5 -120.5 120.49 120.5zm-270.69 705.78l-223.79 0 134.27 -78.33 89.52 78.33zm-67.13 -100.71l145.45 -89.51 -33.56 201.41 -111.89 -111.9zm89.51 156.65l-33.57 190.21 -89.51 -100.7 123.08 -89.51zm-55.94 -22.38l-111.89 89.51 -78.33 -89.51 190.22 0zm-11.2 223.79l-234.97 0 123.08 -89.52 111.89 89.52zm76.73 671.34l-51.15 102.3 -89.51 -102.3 140.66 0zm38.36 0l127.88 0 -166.24 89.51 38.36 -89.51zm842.19 -540.33l-116.71 97.67 -57.58 -186.74 174.29 89.07zm-201.18 -154.53l-46.42 -187.5 128.88 80.95 -82.46 106.55zm139.8 -88.03l128.88 80.95 -234.43 15.96 105.55 -96.91zm-14.19 -43.89l-117.72 -81.7 189.77 -12.92 -72.05 94.62zm-153.49 -112.91l83.99 -84.22 139.28 69.02 -223.27 15.2zm-43.9 14.2l-47.17 -198.65 151.21 79.42 -104.04 119.23zm-272.47 -708.98l120.5 -120.5 120.49 120.5 -240.99 0zm-24.1 -24.11l0 -240.99 120.5 120.5 -120.5 120.49zm24.1 -265.09l240.99 0 -120.49 120.5 -120.5 -120.5zm-3.44 -67.99l111.88 -111.89 111.9 111.89 -223.78 0zm-22.38 -22.38l0 -223.78 111.89 111.89 -111.89 111.89zm-2.58 -348.59l0 -197.96 98.97 98.99 -98.97 98.97zm118.77 -79.18l98.98 98.98 -197.96 0 98.98 -98.98zm-81.76 -1474.38l-47.34 47.34 0 -94.68 47.34 47.34zm-37.87 -56.81l94.67 0 -47.34 47.34 -47.33 -47.34zm-7.75 325.35l55.94 55.94 -55.94 55.94 0 -111.88zm11.19 -11.19l111.89 0 -55.95 55.94 -55.94 -55.94zm-8.61 389.9l68.85 68.85 -68.85 68.86 0 -137.71zm13.77 -13.78l137.71 0 -68.85 68.86 -68.86 -68.86zm-10.76 468.66l83.92 83.91 -83.92 83.92 0 -167.83zm16.78 -16.79l167.84 0 -83.91 83.91 -83.93 -83.91zm83.93 117.49l83.91 83.92 -167.84 0 83.93 -83.92zm16.78 -16.79l83.91 -83.91 0 167.84 -83.91 -83.93zm-100.71 -145.45l83.92 -83.92 83.91 83.92 -167.83 0zm-16.78 -16.79l0 -167.84 83.92 83.92 -83.92 83.92zm79.62 -293.92l68.85 68.85 -137.71 0 68.86 -68.85zm13.77 -13.78l68.86 -68.85 0 137.71 -68.86 -68.86zm-82.63 -118.77l68.86 -68.86 68.85 68.86 -137.71 0zm-13.77 -13.78l0 -137.71 68.85 68.86 -68.85 68.85zm64.55 -247.88l55.95 55.95 -111.89 0 55.94 -55.95zm11.2 -11.19l55.94 -55.94 0 111.88 -55.94 -55.94zm-67.14 -100.7l55.94 -55.95 55.95 55.95 -111.89 0zm-11.19 -11.19l0 -111.89 55.94 55.94 -55.94 55.95zm55.08 -203.12l47.34 47.34 -94.67 0 47.33 -47.34zm9.47 -9.47l47.34 -47.35 0 94.69 -47.34 -47.34zm-56.8 -77.46l47.34 -47.34 47.34 47.34 -94.68 0zm-9.47 -9.48l0 -94.68 47.34 47.34 -47.34 47.34zm50.21 -170.41l37.3 -37.3 0 74.59 -37.3 -37.29zm29.84 44.76l-74.6 0 37.3 -37.3 37.3 37.3zm-37.3 -52.22l-37.3 -37.3 74.6 0 -37.3 37.3zm-7.46 7.46l-37.3 37.29 0 -74.59 37.3 37.3zm494.71 4184.73l-89.51 102.29 -51.15 -102.29 140.66 0zm-27.54 -433.81l116.71 -97.67 151.2 79.42 -267.91 18.25zm287.96 -53.26l-151.96 -90.59 84.74 -73.05 67.22 163.64zm-186.97 -110.63l-139.28 -69.01 223.27 -15.21 -83.99 84.22zm68.26 -150.44l-128.12 -69.78 72.07 -94.63 56.05 164.41zm-84.46 -252.2l-128.11 -69.78 72.82 -83.46 55.29 153.24zm-67.99 -174.81l-83.22 95.39 -151.2 -79.42 234.42 -15.97zm-215.43 -494.62l-120.5 -120.49 120.5 -120.5 0 240.99zm-22.39 -355.46l-111.88 -111.89 111.88 -111.88 0 223.77zm-134.26 -134.27l-111.89 -111.9 223.78 0 -111.89 111.9zm100.7 -214.32l-98.98 -98.97 98.99 -98.99 -0.01 197.96zm-118.77 -118.77l-98.99 -98.98 197.96 0 -98.97 98.98zm79.61 -410.99l-83.91 -83.91 83.91 -83.92 0 167.83zm-100.7 -100.7l-83.92 -83.92 167.83 0 -83.91 83.92zm61.54 -339.55l-68.86 -68.85 68.86 -68.86 0 137.71zm-82.63 -82.63l-68.86 -68.85 137.71 0 -68.85 68.85zm49.06 -288.33l-55.94 -55.94 55.94 -55.94 0 111.88zm-67.14 -67.13l-55.94 -55.94 111.89 0 -55.95 55.94zm44.76 -232.4l-47.34 -47.34 47.34 -47.34 0 94.68zm-56.81 -56.8l-47.34 -47.34 94.68 0 -47.34 47.34zm-211.73 244.44l55.94 55.94 -55.94 55.95 0 -111.89zm0 167.84l55.94 55.94 -55.94 55.94 0 -111.88zm117.92 163.53l-68.86 68.85 -68.85 -68.85 137.71 0zm-151.49 13.77l68.86 68.86 -68.86 68.85 0 -137.71zm0 201.41l68.86 68.85 -68.86 68.86 0 -137.71zm145.47 191.93l-83.92 83.92 -83.91 -83.92 167.83 0zm-184.63 16.78l83.91 83.92 -83.91 83.91 0 -167.83zm0 246.17l83.91 83.91 -83.91 83.92 0 -167.83zm178.6 233.68l-98.99 98.98 -98.98 -98.98 197.97 0zm-217.76 19.79l98.98 98.99 -98.98 98.98 0 -197.97zm212.59 300.38l-111.89 111.9 -111.89 -111.9 223.78 0zm-246.15 22.39l111.88 111.89 -111.88 111.88 0 -223.77zm-22.39 338.25l120.5 120.5 -120.5 120.49 0 -240.99zm50.36 758.28l-145.47 89.51 -89.51 -89.51 234.98 0zm-246.17 22.38l78.33 78.33 -123.08 78.33 44.75 -156.66zm-67.13 246.16l78.33 89.51 -123.08 78.33 44.75 -167.84zm167.83 234.97l-134.27 78.33 -89.51 -78.33 223.78 0zm-257.35 33.56l89.52 67.14 -145.46 100.7 55.94 -167.84zm63.94 604.22l-166.23 89.51 38.36 -89.51 127.87 0zm-166.23 0l-51.16 102.3 -89.51 -102.3 140.67 0zm-179.03 12.79l89.52 89.51 -153.45 12.79 63.93 -102.3zm143.87 311.69l-166.24 89.51 38.37 -89.51 127.87 0zm-220.59 -55.94l140.66 -89.51 12.79 76.72 -153.45 12.79zm0 -115.09l89.51 12.79 -115.09 76.72 25.58 -89.51zm54.34 171.03l-51.15 102.3 -89.51 -102.3 140.66 0zm-179.02 12.79l89.51 89.51 -153.45 12.78 63.94 -102.29zm-13.32 647.37l-193.95 104.43 44.76 -104.43 149.19 0zm-253.62 -78.32l140.66 -89.51 12.79 76.72 -153.45 12.79zm179.02 0l38.37 -102.3 89.51 102.3 -127.88 0zm242.96 -268.54l-166.23 89.51 38.36 -89.51 127.87 0zm-231.77 -44.76l140.67 -89.51 12.78 76.73 -153.45 12.78zm0 -115.09l89.51 12.79 -115.09 76.72 25.58 -89.51zm65.54 159.85l-51.16 102.3 -89.51 -102.3 140.67 0zm-179.03 12.79l89.51 89.51 -153.45 12.79 63.94 -102.3zm-76.72 140.66l89.51 12.79 -115.09 76.72 25.58 -89.51zm59.67 193.41l-59.67 119.35 -104.44 -119.35 164.11 0zm-298.38 179.03l104.44 14.92 -134.27 89.51 29.83 -104.43zm0 134.27l164.11 -104.44 14.92 89.52 -179.03 14.92zm14.93 -179.03l74.59 -119.35 104.44 104.43 -179.03 14.92zm193.94 179.03l44.76 -119.35 104.44 119.35 -149.2 0zm208.86 -14.92l-104.42 -119.35 179.02 -14.93 -74.6 134.28zm89.51 -179.03l-164.1 0 208.86 -104.43 -44.76 104.43zm89.52 -210.46l-89.51 -102.3 153.45 -12.78 -63.94 115.08zm76.73 -153.45l-140.67 0 179.02 -89.51 -38.35 89.51zm-65.55 -147.06l38.37 -102.29 89.51 102.29 -127.88 0zm179.04 -12.78l-89.51 -102.3 153.45 -12.79 -63.94 115.09zm76.72 -153.45l-140.66 0 179.02 -89.51 -38.36 89.51zm-54.35 -158.25l38.37 -102.3 89.51 102.3 -127.88 0zm179.02 -12.79l-89.51 -102.3 153.45 -12.78 -63.94 115.08zm-63.93 -153.45l179.02 -89.51 -38.37 89.51 -140.65 0zm187.01 51.15l89.51 12.79 -115.09 76.72 25.58 -89.51zm0 115.09l140.67 -89.51 12.78 76.72 -153.45 12.79zm12.8 -153.45l63.94 -102.3 89.51 89.51 -153.45 12.79zm166.23 153.45l38.37 -102.3 89.51 102.3 -127.88 0zm179.03 -12.79l-89.51 -102.3 153.45 -12.78 -63.94 115.08zm-63.94 -153.45l179.02 -89.51 -38.37 89.51 -140.65 0zm174.23 -17.58l89.51 44.76 -70.33 0 -19.18 -44.76zm25.58 63.93l76.73 6.4 -44.76 51.15 -31.97 -57.55zm57.54 63.94l44.76 -51.15 19.18 51.15 -63.94 0zm115.09 -127.87l31.97 51.15 -76.73 -6.39 44.76 -44.76zm-38.37 121.48l6.4 -38.36 70.33 44.76 -76.73 -6.4zm31.98 -44.76l44.76 -6.39 12.78 44.76 -57.54 -38.37zm63.94 -137.47l179.02 89.51 -140.67 0.01 -38.35 -89.52zm51.14 127.88l153.45 12.79 -89.51 102.29 -63.94 -115.08zm115.09 127.88l89.51 -102.3 38.37 102.3 -127.88 0zm230.18 -255.76l63.94 102.3 -153.45 -12.79 89.51 -89.51zm-76.73 242.97l12.79 -76.72 140.66 89.51 -153.45 -12.79zm63.94 -89.52l89.51 -12.78 25.58 89.51 -115.09 -76.73zm86.32 -164.63l179.02 89.51 -140.66 0 -38.36 -89.51zm51.15 127.87l153.45 12.78 -89.51 102.3 -63.94 -115.08zm204.59 25.58l38.37 102.3 -127.88 0 89.51 -102.3zm6.4 260.55l-38.37 -89.51 179.02 89.51 -140.65 0zm12.79 38.35l153.45 12.79 -89.51 102.3 -63.94 -115.09zm204.6 25.59l38.36 102.29 -127.87 0 89.51 -102.29zm-65.54 159.84l179.03 89.51 -140.67 0 -38.36 -89.51zm51.16 127.88l153.45 12.78 -89.51 102.3 -63.94 -115.08zm108.69 221.11l208.86 104.43 -164.1 0 -44.76 -104.43zm59.67 149.18l179.02 14.93 -104.43 119.35 -74.59 -134.28z"/>
   <polygon class="fil2" points="6364.81,14111.35 6510.26,14111.35 6510.26,14044.21 6364.81,14044.21 "/>
   <polygon class="fil2" points="6599.78,14111.35 6745.24,14111.35 6745.24,14044.21 6599.78,14044.21 "/>
   <path class="fil1" d="M9261.95 20190.32c-120.61,71.11 -168.08,214.07 -168.08,214.07 0,0 148.07,27.65 268.68,-43.47 120.61,-71.12 168.07,-214.06 168.07,-214.06 0,0 -148.07,-27.65 -268.67,43.46z"/>
   <path class="fil3" d="M9304.21 20234.41c-67.54,122.65 -209.03,174.3 -209.03,174.3 0,0 -32,-147.2 35.54,-269.84 67.53,-122.64 209.03,-174.3 209.03,-174.3 0,0 31.99,147.2 -35.54,269.84z"/>
  </g>
  <path class="fil4" d="M10087.37 18545.08c-0.67,-27.8 -8.45,-51.1 -19.63,-63.94l-8.84 34.86 0 -41.87c-3.34,-2.05 -7.19,-3.14 -11.11,-3.14 -0.61,0 -1.23,0.03 -1.84,0.08 -21.74,2.01 -38.54,38.54 -37.53,81.57 1,43.04 19.46,76.35 41.2,74.35 21.74,-2.01 38.75,-38.7 37.75,-81.91z"/>
  <path class="fil2" d="M10082.09 18566.04c-9.12,2.01 -17.96,7.62 -27.08,8.73 -9.12,1.12 -19.13,-3.22 -24.86,-17.29 -3.11,-7.56 -4.67,-17.12 -7.28,-25.41 -2.02,-6.77 -5.41,-13.06 -9.95,-18.46 -2.83,11.38 -4.29,23.11 -4.29,34.84 0,1.35 0.02,2.75 0.06,4.09 1,43.03 19.46,76.28 41.2,74.28 18.24,-1.67 32.97,-27.8 36.64,-61.5 -1.48,0.15 -2.98,0.4 -4.44,0.72z"/>
  <path class="fil4" d="M11893.82 18257.67c-19.46,-19.52 -41.32,-31.2 -58.28,-32.81l17.41 31.14 -28.64 -30.53c-4.44,0.95 -8.47,3.29 -11.51,6.68 -14.4,16.68 -1.39,54.49 29.03,85.01 30.41,30.53 66.72,41.93 81.07,25.47 14.34,-16.46 1.16,-54.6 -29.08,-84.96z"/>
  <path class="fil2" d="M11904.16 18276.41c-5.23,7.67 -7.79,17.85 -13.62,24.91 -5.84,7.06 -16.07,10.84 -29.92,4.67 -7.51,-3.34 -15.24,-9.23 -22.8,-13.4 -6.12,-3.55 -12.93,-5.81 -19.96,-6.62 6.47,11.41 14.52,21.95 23.8,31.2 30.42,30.53 66.73,41.93 81.07,25.47 12.01,-13.79 4.78,-42.76 -15.79,-69.78 -1.02,1.09 -1.95,2.29 -2.78,3.55l0 0z"/>
  <path class="fil5" d="M10464.42 18371.43l-95.75 -55.6c0,0 -231.42,-31.92 -199.51,-143.63 31.92,-111.7 191.56,0 191.56,0l103.7 71.35 0 127.88z"/>
  <path class="fil2" d="M10464.42 18371.43l-95.75 -55.6c0,0 -231.42,-31.92 -199.51,-143.63 31.92,-111.7 191.56,0 191.56,0l103.7 71.35 0 127.88z"/>
  <path class="fil5" d="M10815.5 17804.89c0,0 -231.37,167.59 -231.37,111.71 0,-33.37 -40.37,-136.4 -72.62,-213.08 -21.35,-50.82 -38.92,-90.13 -38.92,-90.13l239.09 -63.83c-3.24,17.14 -4.91,34.66 -4.91,52.14 0,21.75 2.56,43.49 7.57,64.63 14.12,57.71 50.52,107.56 101.17,138.56l-0.01 0z"/>
  <path class="fil5" d="M10336.92 19227.39c0,0 -183.49,406.96 -119.72,558.54 0,0 -199.45,606.47 -263.28,630.37 -63.83,23.91 159.58,63.84 159.58,63.84 0,0 263.17,-351.08 279.02,-630.38 15.85,-279.29 303.32,-566.43 303.32,-566.43l-358.92 -55.94z"/>
  <path class="fil5" d="M10759.51 19392.76c0,0 103.7,335.18 239.37,430.92 0,0 279.29,462.79 239.09,606.42 0,0 159.58,23.96 167.59,0 0,0 -71.84,-502.71 -247.38,-702.16 -175.54,-199.45 -95.3,-439.05 -95.3,-439.05l-303.37 103.87z"/>
  <ellipse class="fil6" cx="10329.84" cy="20679.14" rx="1251.87" ry="191.49"/>
  <path class="fil0" d="M10057.46 20424.31c0,0 -95.75,-79.79 -167.54,-15.96 -71.78,63.84 -199.5,47.88 -295.25,15.96 -95.75,-31.91 -87.74,47.88 135.67,151.58 223.41,103.7 351.08,127.89 351.08,127.89 0,0 31.92,-127.89 31.92,-159.59 0,-31.69 19.85,-91.57 19.85,-91.57l-75.73 -28.31z"/>
  <path class="fil0" d="M11318.21 20414.14c0,0 -95.75,-55.6 -111.71,47.87 -15.96,103.48 -247.38,167.59 -247.38,167.59 0,0 -111.71,103.7 231.42,71.62 343.13,-32.08 319.17,-95.75 319.17,-95.75l-108.65 -206.51 -82.85 15.18z"/>
  <path class="fil1" d="M10464.42 18858.18c0,0 -247.38,351.09 -151.63,390.95 95.74,39.87 87.79,-63.83 183.49,47.88 95.69,111.71 343.13,55.6 375.04,31.92 31.92,-23.69 111.71,-127.89 175.54,-119.66 63.84,8.23 -103.86,-406.97 -103.86,-406.97l-478.58 55.88z"/>
  <path class="fil2" d="M10692.78 17631.91c-34.14,31.86 -58.27,85.9 -108.65,85.9 -0.1,0.01 -0.19,0.01 -0.28,0.01 -24.8,0 -49.42,-4.86 -72.34,-14.29 -21.35,-50.82 -38.92,-90.13 -38.92,-90.13l239.09 -63.83c-7.78,45.69 -27.07,49.86 -18.9,82.34z"/>
  <circle class="fil5" cx="10584.13" cy="17509.63" r="191.5"/>
  <path class="fil0" d="M10695.84 17780.98c0,0 -82.74,83.96 -121.16,89.86 -38.42,5.89 -182.16,253.21 -142.18,452.72 39.98,199.5 -47.87,614.42 -7.95,638.33 39.92,23.91 678.36,-87.75 678.36,-87.75l-407.07 -1093.16z"/>
  <path class="fil7" d="M10775.63 17741.06c0,0 -143.62,-47.88 -191.5,207.45 -47.87,255.33 -111.71,39.93 -111.71,366.99 0,327.06 -23.96,446.88 15.96,726.12 39.93,279.24 71.79,279.3 23.91,375.05 -47.87,95.74 510.66,71.83 646.34,-111.71 135.67,-183.55 -39.93,-869.75 -111.71,-973.51 -71.79,-103.76 -71.84,-422.86 -127.89,-502.65 -33.82,-47.56 -85.66,-79.27 -143.41,-87.74l0.01 0z"/>
  <path class="fil8" d="M10771.35 19302.9l-70.68 -88.41 -225.58 -1076.59 151.63 -283.02c26.01,-48.55 74.18,-81.31 128.9,-87.59 6.65,-0.8 13.38,-1.22 20.1,-1.22 47.75,0 93.2,20.77 124.46,56.84 219.47,249.88 329.62,1024.72 334.18,1057.58l0.45 3.12 -22.24 57.88 -116.77 261.72 -324.45 99.69zm-64.17 -1634.46l56.94 71.17 313.99 1443.63 112.1 -251.21 19.96 -51.55c-7.89,-54.38 -120.05,-805.3 -328.06,-1042.06 -27.27,-30.85 -66.47,-48.51 -107.64,-48.51 -53.01,0 -101.75,29.23 -126.73,75.97l-147.46 275.41 206.9 -472.85z"/>
  <path class="fil7" d="M10288.88 18227.81l0 0 -207.35 -184.44c-2.64,-2.37 -4.15,-5.76 -4.15,-9.31 0,-2.46 0.73,-4.87 2.1,-6.92l2.55 -3.9 0 0c2.05,-3.18 5.58,-5.11 9.36,-5.11 2.88,0 5.64,1.12 7.71,3.11l189.06 175.15c4.51,4.11 7.1,9.95 7.1,16.06 0,5.76 -2.3,11.29 -6.38,15.36z"/>
  <path class="fil9" d="M10288.88 18227.81l0 0 -207.35 -184.44c-2.64,-2.37 -4.15,-5.76 -4.15,-9.31 0,-2.46 0.73,-4.87 2.1,-6.92l2.55 -3.9 206.35 185.05c2.84,2.54 4.47,6.18 4.47,9.99 0,3.58 -1.43,7.01 -3.97,9.53l0 0z"/>
  <path class="fil5" d="M10903.3 18267.68c0,0 -295.26,-23.91 -351.08,-127.89 -55.83,-103.98 -199.51,-47.88 -159.59,0 39.93,47.87 31.92,159.58 143.63,167.59 111.71,8 390.94,64.05 390.94,64.05l-23.9 -103.75z"/>
  <path class="fil8" d="M11222.46 18882.09c0,0 -199.51,15.96 -247.38,223.42 -47.87,207.46 -263.28,103.76 -263.28,103.76 0,0 -23.97,542.57 327.11,406.96 351.08,-135.62 430.93,-391.01 430.93,-422.92 0,-31.92 -239.37,-223.42 -247.38,-311.22z"/>
  <path class="fil2" d="M10727.76 19249.13c0,0 215.24,103.76 263.28,-103.7 45.59,-197.61 228.58,-221.47 245.93,-223.3 -7.46,-12.23 -12.42,-25.87 -14.52,-40.04 -2.1,-14.18 -199.5,15.96 -247.38,223.41 -47.87,207.46 -263.28,103.76 -263.28,103.76 0,0 -7.78,177.09 50.99,303.65 -41.31,-120.82 -35.02,-263.78 -35.02,-263.78z"/>
  <path class="fil2" d="M11468.12 19205.48c0.94,-3.93 1.52,-7.97 1.72,-12.01 0,-27.3 -175.21,-171.48 -230.81,-267.5 11.79,74.17 174.6,215.68 229.09,279.51z"/>
  <g>
   <path class="fil8" d="M10336.92 17375.3c-11.12,34.92 24.85,70.22 61.16,73.89 36.31,3.67 71.51,-13.73 104.76,-29.3 33.25,-15.57 70.39,-30.14 105.92,-20.69 38.93,10.29 64.84,46.49 82.13,82.63 15.03,31.6 26.1,65.06 32.74,99.43 7.12,36.81 10.4,77.29 35.7,105.09 25.3,27.8 67.28,35.3 105.64,35.14 38.37,-0.17 77.18,-5.56 114.16,3.89 73.39,19.13 118.82,92.25 145.01,163.25 26.19,71.01 41.93,148.35 89.36,207.46 39.53,49.38 97.19,80.68 154.96,106.65 29.14,13.06 59.33,25.24 91.14,28.24 31.8,3.01 65.94,-4.39 88.96,-26.19 25.97,-24.35 34.31,-61.49 41.37,-96.3 10.29,-50.49 20.57,-102.37 12.07,-153.24 -11.13,-66.73 -54,-125.39 -63.84,-192.39 -9.56,-65.17 12.96,-130.95 10.68,-196.78 -3.84,-110.21 -84.96,-213.52 -191.33,-243.71 -38.93,-11.12 -79.79,-13.13 -117.16,-27.8 -48.71,-19.41 -86.24,-58.44 -126.05,-92.53 -95.01,-81.15 -208.92,-138.06 -330.89,-165.3 -81.96,-18.18 -178.93,-18.46 -236.87,42.09 -23.52,24.64 -38.93,57.94 -68.95,74.4 -15.4,8.51 -33.09,11.57 -49.65,17.29 -81.85,28.14 -128.89,130.12 -97.14,210.41l6.12 -5.63zm0 0l0 0 0 0z"/>
  </g>
  <path class="fil2" d="M11507.76 18151.19c-31.81,-3.01 -62,-15.18 -91.13,-28.25 -57.78,-25.97 -115.38,-57.27 -154.97,-106.65 -47.43,-59.1 -63.22,-136.39 -89.36,-207.45 -26.13,-71.07 -71.61,-144.13 -145.01,-163.26 -36.98,-9.67 -75.95,-4.05 -114.15,-3.89 -38.2,0.17 -79.79,-6.89 -105.65,-35.14 -25.86,-28.25 -28.58,-68.28 -35.7,-105.09 -6.6,-34.34 -17.66,-67.89 -32.73,-99.44 -17.29,-36.14 -43.31,-72.29 -82.12,-82.63 -35.53,-9.45 -72.68,5.12 -105.93,20.69 -33.25,15.57 -68.17,32.97 -104.75,29.3 -36.59,-3.67 -72.29,-38.92 -61.17,-73.9l-5.56 5.56c-6.65,-17.44 -10.08,-36.02 -10.08,-54.71 0,-14.72 2.13,-29.39 6.29,-43.51 -47.1,44.2 -68.17,117.32 -44.15,177.93l5.56 -5.56c-11.12,34.92 24.85,70.22 61.16,73.89 36.31,3.67 71.51,-13.73 104.76,-29.3 33.25,-15.57 70.39,-30.14 105.92,-20.69 38.93,10.29 64.84,46.49 82.13,82.63 15.02,31.6 26.09,65.06 32.73,99.43 7.12,36.8 10.4,77.28 35.7,105.09 25.3,27.8 67.28,35.3 105.65,35.14 38.36,-0.17 77.17,-5.56 114.15,3.89 73.4,19.13 118.82,92.24 145.01,163.25 26.19,71.01 41.93,148.35 89.36,207.46 39.53,49.37 97.19,80.68 154.97,106.65 29.13,13.06 59.32,25.24 91.13,28.24 31.8,3.01 65.95,-4.39 88.96,-26.19 19.58,-18.35 29.14,-44.03 35.7,-70.5 -19.05,11.59 -40.95,17.75 -63.28,17.75 -4.48,0 -8.98,-0.25 -13.44,-0.74l0 0z"/>
  <path class="fil7" d="M10695.84 17852.76c0,0 -23.97,175.54 63.83,215.47 87.8,39.92 151.58,175.32 151.58,175.32l-71.79 15.95c0,0 -23.96,111.71 39.87,143.63 63.83,31.91 239.37,0 239.37,0 0,0 79.85,-39.92 15.96,-167.59 -63.89,-127.66 -247.27,-406.69 -247.27,-406.69 0,0 -95.8,-103.75 -191.55,23.91z"/>
  <ellipse class="fil5" cx="10719.19" cy="17512.36" rx="38.42" ry="57.61"/>
  <circle class="fil0" cx="10719.19" cy="17518.75" r="19.18"/>
  <ellipse class="fil0" transform="matrix(0.0944266 -0.187746 0.187746 0.0944266 10703.2 17547.6)" rx="106.62" ry="45.77"/>
  <path class="fil4" d="M11510.82 16949.26c-0.67,-27.52 -8.45,-51.1 -19.63,-63.94l-8.84 34.86 0 -41.87c-3.34,-2.05 -7.19,-3.14 -11.11,-3.14 -0.62,0 -1.23,0.03 -1.85,0.08 -21.74,2.01 -38.53,38.54 -37.53,81.57 1,43.04 19.46,76.35 41.21,74.35 21.74,-2 38.75,-38.7 37.75,-81.91z"/>
  <path class="fil2" d="M11505.54 16970.23c-9.12,2 -17.96,7.61 -27.08,8.73 -9.12,1.11 -19.13,-3.23 -24.86,-17.3 -3.11,-7.56 -4.67,-17.12 -7.28,-25.41 -2.02,-6.77 -5.41,-13.06 -9.95,-18.46 -2.83,11.39 -4.29,23.11 -4.29,34.84 0,1.35 0.02,2.75 0.06,4.09 1,43.04 19.46,76.29 41.2,74.28 18.24,-1.66 32.97,-27.8 36.64,-61.49 -1.49,0.15 -2.98,0.39 -4.45,0.72l0.01 0z"/>
  <path class="fil4" d="M11913.94 19217.55c25.19,-11.12 43.93,-27.41 51.49,-42.7l-35.31 5.11 38.93 -15.79c0.17,-1.09 0.25,-2.2 0.25,-3.31 0,-3.41 -0.81,-6.78 -2.37,-9.81 -10.17,-19.3 -50.37,-20.8 -89.74,-3.34 -39.37,17.46 -63.06,47.21 -52.88,66.72 10.18,19.52 50.21,20.58 89.63,3.12z"/>
  <path class="fil2" d="M11892.7 19220.61c-5.56,-7.62 -13.9,-13.62 -18.4,-21.63 -4.5,-8.01 -4.39,-18.91 6.39,-29.58 5.56,-5.56 14.02,-11.12 20.63,-16.68 5.51,-4.43 10.05,-9.97 13.29,-16.24 -12.95,1.99 -25.64,5.74 -37.59,11.11 -39.37,17.46 -63.05,47.21 -52.88,66.73 8.57,16.18 38.26,19.85 70.84,10.28 -0.67,-1.37 -1.45,-2.71 -2.28,-4l0 0.01z"/>
  <path class="fil4" d="M9773.21 19473.33c25.19,-11.12 43.93,-27.42 51.49,-42.71l-35.31 5.12 38.92 -15.79c0.17,-1.1 0.26,-2.21 0.26,-3.31 0,-3.42 -0.81,-6.78 -2.37,-9.82 -10.18,-19.29 -50.38,-20.79 -89.75,-3.34 -39.36,17.46 -63.05,47.21 -52.87,66.73 10.17,19.52 50.21,20.58 89.63,3.12z"/>
  <path class="fil2" d="M9751.97 19476.38c-5.56,-7.61 -13.9,-13.62 -18.4,-21.62 -4.51,-8.01 -4.4,-18.91 6.39,-29.59 5.56,-5.56 14.01,-11.12 20.63,-16.68 5.5,-4.42 10.05,-9.96 13.29,-16.23 -12.95,1.98 -25.64,5.74 -37.59,11.11 -39.37,17.46 -63.06,47.21 -52.88,66.72 8.56,16.18 38.25,19.86 70.84,10.29 -0.67,-1.37 -1.44,-2.72 -2.28,-4l0 0z"/>
  <polygon class="fil8" points="7785.18,13348.74 7288.68,13170.41 7377.32,12923.61 7686.46,12847.8 7873.82,13101.94 "/>
  <path class="fil0" d="M7725.03 13299.8l-371.04 -141.44c96.32,-129.02 139.4,-220.03 139.43,-363.25l371.04 141.44c-86.2,122.45 -122.25,214.49 -139.43,363.25z"/>
  <rect class="fil1" transform="matrix(0.0923192 0.0351916 -0.0351916 0.0923192 7562.01 12882.6)" width="2082.17" height="96.85"/>
  <rect class="fil1" transform="matrix(0.0923192 0.0351916 -0.0351916 0.0923192 7548.38 12918.4)" width="2082.17" height="96.85"/>
  <rect class="fil1" transform="matrix(0.0923192 0.0351916 -0.0351916 0.0923192 7534.74 12954.2)" width="2082.17" height="96.85"/>
  <rect class="fil1" transform="matrix(0.0923192 0.0351916 -0.0351916 0.0923192 7521.11 12989.9)" width="2082.17" height="96.85"/>
  <rect class="fil1" transform="matrix(0.0923192 0.0351916 -0.0351916 0.0923192 7507.48 13025.7)" width="2082.17" height="96.85"/>
  <rect class="fil1" transform="matrix(0.0923192 0.0351916 -0.0351916 0.0923192 7493.85 13061.4)" width="2082.17" height="96.85"/>
  <rect class="fil1" transform="matrix(0.0923192 0.0351916 -0.0351916 0.0923192 7480.21 13097.2)" width="2082.17" height="96.85"/>
  <rect class="fil1" transform="matrix(0.0923192 0.0351916 -0.0351916 0.0923192 7466.58 13133)" width="2082.17" height="96.85"/>
  <polygon class="fil1" points="7773.71,13380.68 7277.2,13202.35 7377.32,12923.61 7586.98,13120.21 7873.82,13101.94 "/>
  <polygon class="fil7" points="7521.43,13292.85 7273.86,13203.93 7334.18,13035.97 7339.11,13037.73 7280.55,13200.77 7523.19,13287.92 "/>
  <rect class="fil7" transform="matrix(0.0929839 0.0333961 -0.0333961 0.0929839 7360.84 13088.2)" width="780.65" height="312.26"/>
  <ellipse class="fil7" transform="matrix(0.0351916 -0.0923192 0.0923192 0.0351916 7685.17 12872.5)" rx="238.91" ry="661.46"/>
  <path class="fil7" d="M7799.61 12524.33c-9.53,-2.96 -19.5,-4.48 -29.5,-4.48 -43.48,0 -81.95,28.32 -94.86,69.84 -16.29,52.39 28.11,244.17 28.11,244.17 0,0 145.31,-132.79 161.6,-185.18 2.97,-9.53 4.49,-19.5 4.49,-29.49 0,-43.49 -28.32,-81.96 -69.84,-94.86l0 0zm-43.47 139.79c-19.67,-6.11 -33.08,-24.33 -33.08,-44.93 0,-25.98 21.07,-47.06 47.05,-47.06 25.99,0 47.06,21.08 47.06,47.06 0,4.73 -0.72,9.45 -2.12,13.97 -6.11,19.67 -24.34,33.08 -44.94,33.08 -4.73,0 -9.45,-0.72 -13.97,-2.12l0 0z"/>
 </g>
</svg>
