<?xml version="1.0" encoding="UTF-8"?>
<!DOCTYPE svg PUBLIC "-//W3C//DTD SVG 1.1//EN" "http://www.w3.org/Graphics/SVG/1.1/DTD/svg11.dtd">
<!-- Creator: CorelDRAW 2019 (64-Bit) -->
<svg xmlns="http://www.w3.org/2000/svg" xml:space="preserve" width="150mm" height="150mm" version="1.1" style="shape-rendering:geometricPrecision; text-rendering:geometricPrecision; image-rendering:optimizeQuality; fill-rule:evenodd; clip-rule:evenodd"
viewBox="0 0 15000 15000"
 xmlns:xlink="http://www.w3.org/1999/xlink"
 xmlns:xodm="http://www.corel.com/coreldraw/odm/2003"
 data-name="Layer 1">
 <defs>
  <style type="text/css">
   <![CDATA[
    .fil9 {fill:#192534}
    .fil8 {fill:#2F2E41}
    .fil6 {fill:#38364D}
    .fil1 {fill:#3F3D56}
    .fil4 {fill:#57B894}
    .fil3 {fill:#6C63FF}
    .fil7 {fill:#9B9BB1}
    .fil0 {fill:#F2F2F2}
    .fil5 {fill:#FFC1C7}
    .fil2 {fill:black;fill-opacity:0.101961}
   ]]>
  </style>
 </defs>
 <g id="Layer_x0020_1">
  <metadata id="CorelCorpID_0Corel-Layer"/>
  <g id="_1856184265712">
   <path class="fil0" d="M12811.76 10242.6l-1285.87 608.58 1138.05 -850.98c-184.22,-288.02 -393.55,-563.22 -621.71,-818.03l-5576.32 1386.47 5037.28 -1921.54c-229.84,-202.22 -475.19,-389.57 -731.54,-557.33l-8497.44 1368.5c-901.78,1127.83 -1394.71,2529.64 -1394.71,3974.21l12791.02 0.06c-0.01,-1119.94 -297.63,-2221.81 -858.66,-3190.04l-0.1 0.1z"/>
   <path class="fil0" d="M10076.26 7694.42c-869.17,-423.78 -1824.88,-644.63 -2792.25,-644.63 -2.33,0 -6.99,0 -9.31,0 -1975.57,0 -3741.84,895.8 -4914.99,2303.29 2009.22,-440.17 5506.91,-1202.13 7716.55,-1658.66z"/>
   <path class="fil1" d="M11026.62 13289.68c-176.54,-29.91 -346.31,-55.6 -509.33,-77.06l64.44 -124.95c-21.73,-7.54 -117.2,64.01 -117.2,64.01l84.57 -362.69c-109.29,13.19 -164.85,383.5 -164.85,383.5l-122.11 -125.21 59.11 140.77c-426.75,-51.22 -861.69,-80.12 -1292.51,-81.5l55.16 -106.94c-21.73,-7.54 -117.2,64.01 -117.2,64.01l84.57 -362.69c-109.3,13.19 -164.86,383.5 -164.86,383.5l-122.1 -125.21 62.62 149.1c-246.75,3.6 -495.77,21.32 -742.13,50.56 55.79,-166.59 245.31,-325.04 245.31,-325.04 -144.73,43.05 -220.66,115.18 -260.32,182.43 -0.6,-10.1 -0.6,-20.09 -0.6,-30.07 0,-333.44 57.42,-665.47 169.04,-979.29 111.61,-313.83 -299.17,651 -260.99,1087.97l4.57 77.59c-253.62,36.32 -381.13,74.1 -381.13,74.1l3425.94 43.11z"/>
   <path class="fil1" d="M7069.09 13266.38c-176.54,-29.92 -346.31,-55.6 -509.33,-77.06l64.44 -124.95c-21.73,-7.54 -117.2,64.01 -117.2,64.01l84.57 -362.69c-109.29,13.19 -164.85,383.5 -164.85,383.5l-122.11 -125.21 59.11 140.77c-426.73,-51.22 -861.67,-80.12 -1292.49,-81.5l55.16 -106.94c-21.73,-7.54 -117.19,64.01 -117.19,64.01l84.56 -362.69c-109.29,13.19 -164.85,383.5 -164.85,383.5l-122.11 -125.21 62.62 149.09c-246.75,3.62 -495.77,21.34 -742.13,50.58 55.79,-166.59 245.31,-325.04 245.31,-325.04 -144.73,43.05 -220.65,115.18 -260.32,182.43 -0.6,-10.1 -0.6,-20.09 -0.6,-30.07 0,-333.44 57.42,-665.47 169.03,-979.29 111.62,-313.83 -299.16,651 -260.98,1087.97l4.56 77.59c-253.62,36.32 -381.13,74.1 -381.13,74.1l3425.93 43.1z"/>
   <path class="fil1" d="M11346.14 13406.85c0,198.6 -1845.7,796.24 -4122.47,796.24 -2276.78,0 -4122.47,-597.64 -4122.47,-796.24 0,-198.59 1845.69,77.06 4122.47,77.06 2276.77,0 4122.47,-275.65 4122.47,-77.06z"/>
   <path class="fil2" d="M11346.14 13406.85c0,198.6 -1845.7,796.24 -4122.47,796.24 -2276.78,0 -4122.47,-597.64 -4122.47,-796.24 0,-198.59 1845.69,77.06 4122.47,77.06 2276.77,0 4122.47,-275.65 4122.47,-77.06z"/>
   <ellipse class="fil1" cx="7223.67" cy="13406.85" rx="4122.46" ry="359.58"/>
   <path class="fil2" d="M10948.01 13316.96c0,-113.48 -1561.08,-205.48 -3486.75,-205.48 -1925.68,0 -3486.76,92 -3486.76,205.48 0,113.47 1561.08,205.47 3486.76,205.47 1925.67,0 3486.75,-92 3486.75,-205.47z"/>
   <path class="fil1" d="M5089.68 12986.07l393.4 -557.92 -393.97 618.87 -0.62 63.74c-27.81,-0.4 -55.34,-1.48 -82.57,-3.22l37.04 -818.78 -0.37 -6.33 0.72 -1.21 3.53 -77.37 -403.65 -614.78 404.45 556.84 1.11 16.4 27.98 -618.63 -346.32 -635.78 349.74 527.07 24.65 -1282.36 0.1 -4.27 0.03 4.2 1.52 1011.14 337.41 -403.24 -338.27 490.33 -5.1 553.78 314.09 -533.62 -314.78 615.04 -2.82 307.93 456.03 -742.93 -457.09 850.35 -6.24 684.75z"/>
   <path class="fil1" d="M8930.44 13194.47l1015.52 0 -337.32 -545.2 -237.65 -19.81 139.24 -139.25 -848.6 -1371.59 0 -224 -114.12 0 -692.32 -1657.69 119.48 -164.28 -119.47 -89.61 -66.33 0.02 -387.59 -3516.99 58.16 0 89.61 -253.88 0 -492.82 -119.48 0 0 -238.95 -149.34 0 0 -462.95 -29.86 0 0 -448.02 -29.88 0 0 448.02 -44.8 0 0 462.95 -134.4 0 0 238.95 -134.41 0 0 492.82 104.55 253.88 60.4 0 -290.65 3516.99 -1.24 0 -194.14 59.74 104.55 179.21 7.47 14.94 -7.48 -0.02 -581.2 1657.69 -150.58 0 14.94 224.01 -1254.45 2075.84 1030.44 0 0 -238.96 -59.74 0c0,0 194.13,-1314.19 1597.94,-1433.67 1433.67,-29.86 1702.48,1403.81 1702.48,1403.81l-59.73 0 0 268.82zm699.42 -485.37l39.83 139.39 -179.22 -119.47 139.39 -19.92zm-219.03 39.83l219.03 139.38 -238.94 -19.91 19.91 -119.47zm-258.86 139.38l139.39 -159.29 59.74 159.29 -199.13 0zm-233.26 -881.1l51.21 119.47 -221.88 -119.47 170.67 0zm-66.14 -76.81l17.07 -102.4 187.74 119.47 -204.81 -17.07zm319.3 539.76l59.75 139.39 -258.86 -139.39 199.11 0zm-270.23 -104.54l119.47 -136.54 51.21 136.54 -170.68 0zm204.81 -17.07l17.07 -102.4 187.74 119.47 -204.81 -17.07zm204.81 280.91l-79.64 -159.3 219.03 0 -139.39 159.3zm34.15 -297.97l-153.62 -102.41 119.47 -17.06 34.15 119.47zm-51.21 -170.68l-204.81 -17.07 119.47 -119.47 85.34 136.54zm-256.02 -17.07l-68.28 -136.53 187.76 0 -119.48 136.53zm53.33 -230.4l-153.61 -102.41 119.47 -17.07 34.14 119.48zm-51.19 -170.68l-204.81 -17.07 119.47 -119.47 85.34 136.54zm-256.02 -17.07l-68.27 -136.53 187.75 -0.02 -119.48 136.55zm-230.41 -228.28l17.07 -102.4 187.74 119.47 -204.81 -17.07zm162.15 211.22l-221.88 -119.47 170.67 -0.02 51.21 119.49zm76.79 -228.29l-153.61 -102.4 119.47 -17.07 34.14 119.47zm-51.19 -170.67l-204.81 -17.07 119.47 -119.47 85.34 136.54zm-136.54 -153.61l-119.47 136.54 -68.27 -136.54 187.74 0zm-187.74 119.48l-221.88 -119.48 170.67 0 51.21 119.48zm-1677.19 -380.82l308.58 -1373.94 477.89 0 408.46 1373.94 -1194.93 0zm1049.96 395.74l-221.89 -119.47 170.68 0 51.21 119.47zm-392.56 -29.86l-59.74 68.27 -34.13 -68.27 93.87 0zm-93.87 59.74l-110.94 -59.74 85.33 0 25.61 59.74zm-740.3 -851.24l224.01 -134.41 -59.74 253.88 -164.27 -119.47zm119.47 149.33l-358.43 0 194.14 -119.47 164.29 119.47zm549.68 -4765.12l-63.18 63.19 -63.19 -63.19 126.37 0zm-126.36 -27.57l63.19 -63.18 63.18 63.18 -126.37 0zm126.36 179.22l-126.36 0 63.19 -63.19 63.17 63.19zm-50.54 -75.83l63.18 -63.19 0 126.37 -63.18 -63.18zm60.89 134.41l0 149.33 -74.67 -74.67 74.67 -74.66zm-60.89 -313.61l63.18 -63.19 0 126.36 -63.18 -63.17zm16.08 -164.29l49.79 -49.78 0 99.57 -49.79 -49.79zm39.83 59.74l-99.57 0 49.79 -49.78 49.78 49.78zm-49.78 -69.68l-49.79 -49.79 99.57 0 -49.78 49.79zm-9.96 9.94l-49.79 49.79 0 -99.57 49.79 49.78zm54.37 88.46l-63.18 63.19 -63.19 -63.19 126.37 0zm-75.81 75.83l-63.19 63.18 0 -126.37 63.19 63.19zm0 179.2l-63.19 63.18 0 -126.36 63.19 63.18zm71.22 119.48l-74.67 74.67 -74.67 -74.67 149.34 0zm0 179.2l-149.34 0 74.67 -74.67 74.67 74.67zm14.94 59.74l0 149.34 -74.67 -74.67 74.67 -74.67zm-14.94 -14.94l-74.67 74.67 -74.67 -74.67 149.34 0zm0 179.21l-149.34 0 74.67 -74.66 74.67 74.66zm11.49 72.37l0 183.81 -91.9 -91.9 91.9 -91.91zm-18.38 202.19l-183.8 0 91.9 -91.9 91.9 91.9zm18.38 66.63l0 183.81 -91.9 -91.91 91.9 -91.9zm-18.38 -18.38l-91.9 91.9 -91.9 -91.9 183.8 0zm0 220.57l-183.8 0 91.9 -91.9 91.9 91.9zm14.36 76.39l0 224.01 -112 -112 112 -112.01zm-22.4 246.41l-224.01 0 112 -112 112.01 112zm22.4 82.14l0 224.02 -112 -112.01 112 -112.01zm-22.4 -22.41l-112 112 -112 -112 224 0zm0 268.82l-224.01 0 112 -112 112.01 112zm18.37 91.9l0 264.23 -132.1 -132.11 132.1 -132.12zm-26.42 290.65l-264.21 0 132.11 -132.11 132.1 132.11zm22.98 140.15l0 298.68 -149.34 -149.34 149.34 -149.34zm-29.87 328.54l-298.68 0 149.34 -149.33 149.34 149.33zm27.57 122.92l0 321.66 -160.83 -160.83 160.83 -160.83zm-32.16 -32.16l-160.83 160.83 -160.83 -160.83 321.66 0zm0 385.99l-321.66 0 160.83 -160.83 160.83 160.83zm-361.3 941.99l-298.68 0 179.21 -104.54 119.47 104.54zm-89.59 -134.4l194.14 -119.47 -44.81 268.81 -149.33 -149.34zm119.47 209.07l-44.8 253.88 -119.47 -134.41 164.27 -119.47zm-74.67 -29.86l-149.33 119.47 -104.55 -119.47 253.88 0zm-14.94 298.68l-313.62 0 164.28 -119.47 149.34 119.47zm102.41 896.04l-68.28 136.54 -119.47 -136.54 187.75 0zm51.19 0l170.68 0 -221.87 119.48 51.19 -119.48zm1124.08 -721.18l-155.78 130.36 -76.84 -249.24 232.62 118.88zm-268.52 -206.25l-61.95 -250.25 172.01 108.04 -110.06 142.21zm186.6 -117.49l172.01 108.04 -312.9 21.31 140.89 -129.35zm-18.95 -58.58l-157.12 -109.05 253.29 -17.25 -96.17 126.3zm-204.86 -150.7l112.1 -112.41 185.89 92.12 -297.99 20.29zm-58.59 18.95l-62.96 -265.14 201.81 106.01 -138.85 159.13zm-363.67 -946.27l160.83 -160.83 160.82 160.83 -321.65 0zm-32.16 -32.17l0 -321.66 160.83 160.83 -160.83 160.83zm32.16 -353.82l321.65 0 -160.82 160.83 -160.83 -160.83zm-4.6 -90.76l149.34 -149.33 149.35 149.33 -298.69 0zm-29.86 -29.86l0 -298.68 149.34 149.33 -149.34 149.35zm-3.44 -465.26l0 -264.22 132.1 132.12 -132.1 132.1zm158.52 -105.68l132.11 132.11 -264.21 0 132.1 -132.11zm-109.13 -1967.86l-63.18 63.18 0 -126.36 63.18 63.18zm-50.54 -75.82l126.36 0 -63.19 63.19 -63.17 -63.19zm-10.35 434.24l74.67 74.67 -74.67 74.67 0 -149.34zm14.94 -14.94l149.34 0 -74.67 74.67 -74.67 -74.67zm-11.49 520.4l91.9 91.9 -91.9 91.91 0 -183.81zm18.38 -18.38l183.8 0 -91.9 91.9 -91.9 -91.9zm-14.36 625.51l112 112 -112 112 0 -224zm22.4 -22.41l224.01 0 -112 112 -112.01 -112zm112.01 156.82l112 112 -224.01 0 112.01 -112zm22.4 -22.41l112 -112 0 224.02 -112 -112.02zm-134.41 -194.14l112 -112 112 112 -224 0zm-22.4 -22.4l0 -224.02 112 112 -112 112.02zm106.26 -392.3l91.9 91.9 -183.8 0 91.9 -91.9zm18.38 -18.39l91.91 -91.9 0 183.81 -91.91 -91.91zm-110.28 -158.53l91.9 -91.9 91.9 91.9 -183.8 0zm-18.38 -18.38l0 -183.81 91.9 91.91 -91.9 91.9zm86.16 -330.84l74.67 74.66 -149.34 0 74.67 -74.66zm14.94 -14.94l74.66 -74.67 0 149.34 -74.66 -74.67zm-89.61 -134.41l74.67 -74.67 74.67 74.67 -149.34 0zm-14.94 -14.93l0 -149.34 74.67 74.66 -74.67 74.68zm73.52 -271.11l63.19 63.19 -126.36 0 63.17 -63.19zm12.64 -12.64l63.19 -63.19 0 126.37 -63.19 -63.18zm-75.81 -103.39l63.18 -63.18 63.19 63.18 -126.37 0zm-12.64 -12.64l0 -126.37 63.18 63.19 -63.18 63.18zm67.01 -227.46l49.78 -49.78 0 99.57 -49.78 -49.79zm39.83 59.74l-99.57 0 49.78 -49.78 49.79 49.78zm-49.79 -69.68l-49.78 -49.79 99.57 0 -49.79 49.79zm-9.96 9.94l-49.78 49.79 0 -99.57 49.78 49.78zm660.3 5585.35l-119.47 136.54 -68.27 -136.54 187.74 0zm-36.77 -579l155.78 -130.36 201.81 106 -357.59 24.36zm384.35 -71.08l-202.83 -120.91 113.12 -97.51 89.71 218.42zm-249.55 -147.66l-185.9 -92.12 298 -20.29 -112.1 112.41zm91.1 -200.79l-170.99 -93.14 96.18 -126.3 74.81 219.44zm-112.72 -336.61l-170.99 -93.14 97.19 -111.39 73.8 204.53zm-90.74 -233.32l-111.07 127.31 -201.82 -106 312.89 -21.31zm-287.54 -660.16l-160.83 -160.83 160.83 -160.83 0 321.66zm-29.88 -474.44l-149.33 -149.34 149.33 -149.33 0 298.67zm-179.2 -179.21l-149.35 -149.35 298.69 0 -149.34 149.35zm134.4 -286.05l-132.1 -132.1 132.11 -132.12 -0.01 264.22zm-158.52 -158.52l-132.11 -132.12 264.21 0 -132.1 132.12zm106.26 -548.55l-112 -112 112 -112.01 0 224.01zm-134.41 -134.41l-112 -112 224 0 -112 112zm82.14 -453.19l-91.91 -91.9 91.91 -91.91 0 183.81zm-110.29 -110.29l-91.9 -91.9 183.8 0 -91.9 91.9zm65.48 -384.83l-74.66 -74.66 74.66 -74.67 0 149.33zm-89.6 -89.6l-74.67 -74.67 149.34 0 -74.67 74.67zm59.74 -310.18l-63.19 -63.18 63.19 -63.19 0 126.37zm-75.83 -75.81l-63.18 -63.19 126.37 0 -63.19 63.19zm-282.59 326.25l74.66 74.66 -74.66 74.67 0 -149.33zm0 224.01l74.66 74.67 -74.66 74.67 0 -149.34zm157.38 218.26l-91.9 91.9 -91.9 -91.9 183.8 0zm-202.19 18.38l91.91 91.91 -91.91 91.9 0 -183.81zm0 268.82l91.91 91.9 -91.91 91.91 0 -183.81zm194.15 256.18l-112 112 -112 -112 224 0zm-246.42 22.39l112 112 -112 112.01 0 -224.01zm0 328.56l112 112 -112 112 0 -224zm238.37 311.89l-132.11 132.12 -132.11 -132.12 264.22 0zm-290.63 26.42l132.1 132.12 -132.11 132.11 0.01 -264.23zm283.74 400.92l-149.34 149.35 -149.34 -149.35 298.68 0zm-328.54 29.88l149.33 149.33 -149.33 149.34 0 -298.67zm-29.88 451.46l160.83 160.83 -160.83 160.83 0 -321.66zm67.21 1012.07l-194.15 119.47 -119.47 -119.47 313.62 0zm-328.56 29.88l104.55 104.54 -164.28 104.54 59.73 -209.08zm-89.59 328.54l104.54 119.47 -164.27 104.55 59.73 -224.02zm224 313.62l-179.21 104.55 -119.47 -104.55 298.68 0zm-343.48 44.79l119.47 89.61 -194.14 134.41 74.67 -224.02zm85.34 806.45l-221.88 119.48 51.21 -119.48 170.67 0zm-221.88 0l-68.27 136.54 -119.47 -136.54 187.74 0zm-238.94 17.07l119.47 119.47 -204.81 17.07 85.34 -136.54zm192.01 416.01l-221.87 119.47 51.2 -119.47 170.67 0zm-294.41 -74.66l187.74 -119.47 17.07 102.4 -204.81 17.07zm0 -153.61l119.47 17.07 -153.62 102.4 34.15 -119.47zm72.52 228.27l-68.27 136.54 -119.47 -136.54 187.74 0zm-238.94 17.07l119.47 119.47 -204.81 17.06 85.34 -136.53zm-17.77 864.05l-258.86 139.38 59.74 -139.39 199.12 0.01zm-338.51 -104.54l187.74 -119.47 17.07 102.4 -204.81 17.07zm238.94 0l51.21 -136.54 119.47 136.54 -170.68 0zm324.28 -358.41l-221.87 119.47 51.2 -119.47 170.67 0zm-309.34 -59.74l187.74 -119.47 17.07 102.4 -204.81 17.07zm0 -153.62l119.47 17.07 -153.61 102.4 34.14 -119.47zm87.47 213.36l-68.28 136.53 -119.47 -136.53 187.75 0zm-238.95 17.06l119.48 119.47 -204.81 17.07 85.33 -136.54zm-102.4 187.75l119.47 17.06 -153.61 102.41 34.14 -119.47zm79.65 258.14l-79.65 159.3 -139.39 -159.3 219.04 0zm-398.25 238.94l139.39 19.92 -179.21 119.47 39.82 -139.39zm0 179.21l219.04 -139.38 19.91 119.47 -238.95 19.91zm19.92 -238.95l99.56 -159.29 139.39 139.39 -238.95 19.9zm258.86 238.95l59.74 -159.29 139.39 159.29 -199.13 0zm278.76 -19.91l-139.38 -159.3 238.95 -19.91 -99.57 179.21zm119.47 -238.94l-219.02 0 278.76 -139.39 -59.74 139.39zm119.48 -280.91l-119.47 -136.53 204.81 -17.07 -85.34 153.6zm102.41 -204.81l-187.75 0 238.94 -119.47 -51.19 119.47zm-87.48 -196.27l51.21 -136.54 119.47 136.54 -170.68 0zm238.95 -17.07l-119.47 -136.54 204.81 -17.06 -85.34 153.6zm102.41 -204.81l-187.75 0 238.94 -119.47 -51.19 119.47zm-72.54 -211.21l51.21 -136.54 119.47 136.54 -170.68 0zm238.94 -17.07l-119.47 -136.54 204.81 -17.06 -85.34 153.6zm-85.34 -204.81l238.94 -119.47 -51.21 119.47 -187.73 0zm249.61 68.27l119.47 17.07 -153.61 102.4 34.14 -119.47zm0 153.61l187.74 -119.47 17.07 102.4 -204.81 17.07zm17.08 -204.81l85.34 -136.54 119.47 119.47 -204.81 17.07zm221.87 204.81l51.21 -136.54 119.47 136.54 -170.68 0zm238.94 -17.07l-119.47 -136.54 204.81 -17.06 -85.34 153.6zm-85.34 -204.81l238.94 -119.47 -51.2 119.47 -187.74 0zm232.55 -23.47l119.47 59.74 -93.87 0 -25.6 -59.74zm34.14 85.34l102.41 8.53 -59.74 68.28 -42.67 -76.81zm76.8 85.34l59.74 -68.28 25.6 68.28 -85.34 0zm153.61 -170.68l42.67 68.27 -102.41 -8.53 59.74 -59.74zm-51.21 162.15l8.54 -51.2 93.87 59.74 -102.41 -8.54zm42.68 -59.75l59.74 -8.53 17.07 59.74 -76.81 -51.21zm85.34 -183.47l238.94 119.47 -187.74 0.01 -51.2 -119.48zm68.26 170.68l204.81 17.06 -119.47 136.54 -85.34 -153.6zm153.61 170.67l119.47 -136.53 51.21 136.53 -170.68 0zm307.22 -341.35l85.34 136.53 -204.81 -17.06 119.47 -119.47zm-102.41 324.29l17.07 -102.41 187.74 119.47 -204.81 -17.06zm85.34 -119.48l119.47 -17.07 34.13 119.47 -153.6 -102.4zm115.21 -219.74l238.94 119.47 -187.75 0 -51.19 -119.47zm68.27 170.67l204.81 17.06 -119.47 136.54 -85.34 -153.6zm273.07 34.14l51.21 136.54 -170.68 0 119.47 -136.54zm8.54 347.75l-51.21 -119.47 238.94 119.47 -187.73 0zm17.07 51.2l204.81 17.06 -119.47 136.54 -85.34 -153.6zm273.07 34.14l51.21 136.54 -170.68 0 119.47 -136.54zm-87.46 213.34l238.94 119.47 -187.75 0 -51.19 -119.47zm68.27 170.68l204.81 17.07 -119.47 136.53 -85.34 -153.6zm145.07 295.12l278.76 139.39 -219.02 0 -59.74 -139.39zm79.65 199.12l238.94 19.91 -139.39 159.3 -99.55 -179.21z"/>
   <polygon class="fil2" points="6966.62,4868.71 7160.76,4868.71 7160.76,4779.1 6966.62,4779.1 "/>
   <polygon class="fil2" points="7280.24,4868.71 7474.38,4868.71 7474.38,4779.1 7280.24,4779.1 "/>
   <path class="fil1" d="M10833.42 12982.3c-160.97,94.91 -224.32,285.71 -224.32,285.71 0,0 197.63,36.91 358.6,-58.01 160.97,-94.93 224.33,-285.72 224.33,-285.72 0,0 -197.63,-36.9 -358.61,58.02z"/>
   <path class="fil3" d="M10889.83 13041.14c-90.14,163.7 -278.99,232.63 -278.99,232.63 0,0 -42.7,-196.45 47.43,-360.15 90.14,-163.69 279,-232.63 279,-232.63 0,0 42.7,196.46 -47.44,360.15z"/>
  </g>
  <path class="fil4" d="M11935.11 10786.4c-0.89,-37.11 -11.28,-68.2 -26.19,-85.35l-11.8 46.53 0 -55.88c-4.46,-2.73 -9.6,-4.19 -14.83,-4.19 -0.82,0 -1.65,0.04 -2.46,0.11 -29.02,2.67 -51.43,51.43 -50.09,108.87 1.33,57.44 25.97,101.9 54.99,99.22 29.02,-2.67 51.72,-51.65 50.38,-109.31z"/>
  <path class="fil2" d="M11928.06 10814.38c-12.17,2.67 -23.97,10.17 -36.14,11.65 -12.17,1.48 -25.53,-4.31 -33.17,-23.08 -4.16,-10.09 -6.24,-22.86 -9.72,-33.92 -2.7,-9.03 -7.22,-17.43 -13.28,-24.64 -3.78,15.2 -5.72,30.85 -5.72,46.5 0,1.8 0.02,3.68 0.07,5.46 1.33,57.44 25.97,101.82 54.99,99.15 24.34,-2.23 44.01,-37.11 48.91,-82.08 -1.99,0.2 -3.98,0.53 -5.94,0.96z"/>
  <path class="fil4" d="M14346.17 10402.79c-25.97,-26.05 -55.14,-41.64 -77.77,-43.79l23.23 41.56 -38.22 -40.74c-5.93,1.27 -11.32,4.39 -15.36,8.9 -19.23,22.27 -1.86,72.73 38.73,113.48 40.6,40.74 89.06,55.96 108.21,33.99 19.14,-21.97 1.55,-72.88 -38.82,-113.4z"/>
  <path class="fil2" d="M14359.98 10427.8c-6.98,10.24 -10.39,23.82 -18.19,33.25 -7.79,9.42 -21.44,14.47 -39.92,6.23 -10.02,-4.45 -20.34,-12.32 -30.43,-17.88 -8.17,-4.74 -17.26,-7.76 -26.64,-8.84 8.64,15.24 19.37,29.3 31.77,41.65 40.59,40.74 89.05,55.95 108.2,33.99 16.03,-18.41 6.38,-57.07 -21.08,-93.14 -1.36,1.46 -2.61,3.06 -3.72,4.74l0.01 0z"/>
  <path class="fil5" d="M12438.36 10554.63l-127.8 -74.22c0,0 -308.88,-42.59 -266.28,-191.69 42.6,-149.1 255.67,0 255.67,0l138.41 95.22 0 170.69z"/>
  <path class="fil2" d="M12438.36 10554.63l-127.8 -74.22c0,0 -308.88,-42.59 -266.28,-191.69 42.6,-149.1 255.67,0 255.67,0l138.41 95.22 0 170.69z"/>
  <path class="fil5" d="M12906.94 9798.47c0,0 -308.8,223.67 -308.8,149.09 0,-44.53 -53.88,-182.04 -96.92,-284.38 -28.5,-67.84 -51.95,-120.31 -51.95,-120.31l319.12 -85.19c-4.33,22.87 -6.56,46.26 -6.56,69.59 0,29.03 3.41,58.05 10.1,86.26 18.84,77.03 67.43,143.56 135.03,184.94l-0.02 0z"/>
  <path class="fil5" d="M12268.18 11697.07c0,0 -244.9,543.18 -159.78,745.48 0,0 -266.2,809.45 -351.4,841.36 -85.2,31.92 212.99,85.2 212.99,85.2 0,0 351.26,-468.58 372.41,-841.36 21.15,-372.77 404.84,-756.01 404.84,-756.01l-479.06 -74.67z"/>
  <path class="fil5" d="M12832.21 11917.79c0,0 138.41,447.36 319.49,575.16 0,0 372.78,617.68 319.12,809.37 0,0 212.99,31.99 223.68,0 0,0 -95.88,-670.96 -330.18,-937.17 -234.29,-266.2 -127.2,-585.99 -127.2,-585.99l-404.91 138.63z"/>
  <ellipse class="fil6" cx="12258.74" cy="13634.73" rx="1670.87" ry="255.59"/>
  <path class="fil0" d="M11895.19 13294.6c0,0 -127.8,-106.49 -223.61,-21.3 -95.81,85.2 -266.28,63.9 -394.07,21.3 -127.8,-42.6 -117.11,63.9 181.08,202.31 298.19,138.41 468.58,170.69 468.58,170.69 0,0 42.6,-170.69 42.6,-212.99 0,-42.3 26.5,-122.23 26.5,-122.23l-101.08 -37.78z"/>
  <path class="fil0" d="M13577.91 13281.02c0,0 -127.79,-74.21 -149.1,63.9 -21.3,138.11 -330.17,223.68 -330.17,223.68 0,0 -149.1,138.41 308.88,95.59 457.97,-42.82 425.98,-127.8 425.98,-127.8l-145.01 -275.63 -110.58 20.26z"/>
  <path class="fil1" d="M12438.36 11204.3c0,0 -330.18,468.58 -202.38,521.79 127.79,53.22 117.18,-85.19 244.9,63.9 127.73,149.1 457.97,74.22 500.57,42.6 42.6,-31.61 149.1,-170.69 234.3,-159.7 85.19,10.98 -138.63,-543.18 -138.63,-543.18l-638.76 74.59z"/>
  <path class="fil2" d="M12743.16 9567.59c-45.57,42.52 -77.78,114.66 -145.02,114.66 -0.13,0 -0.26,0 -0.38,0 -33.1,0 -65.96,-6.48 -96.55,-19.06 -28.5,-67.84 -51.95,-120.3 -51.95,-120.3l319.12 -85.2c-10.38,60.99 -36.14,66.55 -25.22,109.9z"/>
  <circle class="fil5" cx="12598.14" cy="9404.39" r="255.59"/>
  <path class="fil0" d="M12747.24 9766.55c0,0 -110.43,112.07 -161.72,119.93 -51.28,7.87 -243.12,337.97 -189.76,604.25 53.36,266.28 -63.9,820.06 -10.62,851.98 53.29,31.91 905.41,-117.11 905.41,-117.11l-543.31 -1459.05z"/>
  <path class="fil7" d="M12853.73 9713.27c0,0 -191.69,-63.9 -255.59,276.89 -63.9,340.79 -149.1,53.29 -149.1,489.81 0,436.53 -31.98,596.46 21.3,969.16 53.29,372.7 95.82,372.77 31.92,500.57 -63.9,127.79 681.57,95.88 862.66,-149.1 181.08,-244.98 -53.29,-1160.85 -149.1,-1299.33 -95.81,-138.49 -95.88,-564.4 -170.69,-670.9 -45.14,-63.46 -114.33,-105.79 -191.4,-117.09l0 -0.01z"/>
  <path class="fil8" d="M12848.02 11797.86l-94.33 -118 -301.08 -1436.93 202.38 -377.75c34.71,-64.8 99.01,-108.52 172.04,-116.89 8.87,-1.07 17.86,-1.64 26.82,-1.64 63.74,0 124.39,27.73 166.12,75.87 292.93,333.52 439.94,1367.69 446.03,1411.55l0.59 4.15 -29.68 77.26 -155.85 349.32 -433.04 133.06zm-85.65 -2181.52l76 95 419.09 1926.81 149.61 -335.3 26.64 -68.79c-10.53,-72.58 -160.22,-1074.84 -437.86,-1390.84 -36.39,-41.17 -88.72,-64.75 -143.66,-64.75 -70.76,0 -135.82,39.01 -169.16,101.4l-196.81 367.58 276.15 -631.11z"/>
  <path class="fil7" d="M12204.06 10362.94l0 0 -276.74 -246.17c-3.52,-3.17 -5.54,-7.69 -5.54,-12.42 0,-3.29 0.98,-6.51 2.8,-9.25l3.41 -5.2 0 0c2.73,-4.25 7.44,-6.82 12.49,-6.82 3.84,0 7.53,1.49 10.3,4.15l252.32 233.78c6.03,5.48 9.48,13.26 9.48,21.42 0,7.7 -3.06,15.08 -8.52,20.51z"/>
  <path class="fil9" d="M12204.06 10362.94l0 0 -276.74 -246.17c-3.52,-3.17 -5.54,-7.69 -5.54,-12.42 0,-3.29 0.98,-6.51 2.8,-9.25l3.41 -5.2 275.41 246.99c3.79,3.39 5.97,8.25 5.97,13.33 0,4.78 -1.91,9.35 -5.31,12.71l0 0.01z"/>
  <path class="fil5" d="M13024.13 10416.15c0,0 -394.08,-31.91 -468.59,-170.69 -74.51,-138.78 -266.28,-63.9 -212.99,0 53.29,63.9 42.6,212.99 191.69,223.68 149.1,10.68 521.8,85.49 521.8,85.49l-31.91 -138.48z"/>
  <path class="fil8" d="M13450.12 11236.21c0,0 -266.29,21.3 -330.18,298.19 -63.9,276.89 -351.4,138.48 -351.4,138.48 0,0 -31.99,724.18 436.6,543.17 468.58,-181 575.15,-521.87 575.15,-564.47 0,-42.59 -319.49,-298.19 -330.17,-415.37z"/>
  <path class="fil2" d="M12789.83 11726.09c0,0 287.29,138.49 351.41,-138.4 60.85,-263.76 305.09,-295.6 328.24,-298.05 -9.96,-16.32 -16.57,-34.52 -19.37,-53.44 -2.81,-18.92 -266.28,21.3 -330.18,298.19 -63.9,276.89 -351.4,138.48 -351.4,138.48 0,0 -10.39,236.37 68.05,405.28 -55.13,-161.25 -46.75,-352.06 -46.75,-352.06z"/>
  <path class="fil2" d="M13777.99 11667.84c1.26,-5.26 2.03,-10.64 2.3,-16.03 0,-36.44 -233.85,-228.88 -308.06,-357.05 15.73,99 233.03,287.88 305.76,373.08z"/>
  <g>
   <path class="fil8" d="M12268.18 9225.09c-14.84,46.61 33.18,93.73 81.64,98.63 48.46,4.9 95.44,-18.33 139.82,-39.11 44.38,-20.78 93.95,-40.22 141.38,-27.61 51.95,13.73 86.53,62.04 109.61,110.28 20.06,42.18 34.83,86.84 43.7,132.7 9.5,49.13 13.88,103.16 47.64,140.27 33.77,37.1 89.8,47.12 141.01,46.9 51.21,-0.22 103.01,-7.42 152.36,5.2 97.96,25.53 158.59,123.12 193.55,217.89 34.95,94.77 55.96,198 119.26,276.89 52.77,65.9 129.73,107.68 206.83,142.34 38.89,17.44 79.19,33.7 121.64,37.7 42.45,4.01 88.02,-5.86 118.74,-34.95 34.66,-32.51 45.79,-82.08 55.22,-128.54 13.73,-67.39 27.46,-136.63 16.1,-204.53 -14.84,-89.06 -72.06,-167.36 -85.2,-256.78 -12.76,-86.98 17.3,-174.78 14.25,-262.65 -5.12,-147.09 -113.4,-284.98 -255.37,-325.27 -51.95,-14.85 -106.49,-17.52 -156.37,-37.11 -65.01,-25.9 -115.1,-78 -168.24,-123.49 -126.8,-108.31 -278.85,-184.27 -441.64,-220.63 -109.39,-24.27 -238.82,-24.64 -316.15,56.18 -31.39,32.88 -51.95,77.33 -92.02,99.3 -20.56,11.35 -44.16,15.43 -66.27,23.08 -109.25,37.55 -172.03,173.66 -129.66,280.82l8.17 -7.51zm0 0l0 0 0 0z"/>
  </g>
  <path class="fil2" d="M13830.9 10260.67c-42.45,-4.01 -82.74,-20.26 -121.63,-37.7 -77.11,-34.66 -154,-76.44 -206.83,-142.35 -63.31,-78.88 -84.39,-182.04 -119.27,-276.89 -34.88,-94.84 -95.58,-192.36 -193.55,-217.89 -49.35,-12.91 -101.37,-5.42 -152.36,-5.19 -50.98,0.22 -106.49,-9.21 -141,-46.91 -34.51,-37.7 -38.15,-91.13 -47.65,-140.26 -8.82,-45.83 -23.57,-90.62 -43.68,-132.73 -23.08,-48.23 -57.81,-96.47 -109.62,-110.28 -47.42,-12.61 -96.99,6.83 -141.37,27.61 -44.38,20.78 -90.99,44.01 -139.82,39.11 -48.84,-4.89 -96.48,-51.95 -81.64,-98.63l-7.42 7.43c-8.88,-23.29 -13.45,-48.09 -13.45,-73.03 0,-19.65 2.84,-39.23 8.38,-58.08 -62.85,59 -90.98,156.59 -58.92,237.49l7.42 -7.43c-14.84,46.61 33.17,93.74 81.64,98.63 48.46,4.9 95.43,-18.33 139.82,-39.11 44.38,-20.78 93.95,-40.22 141.37,-27.61 51.95,13.73 86.53,62.05 109.62,110.28 20.05,42.18 34.82,86.84 43.69,132.71 9.5,49.12 13.87,103.15 47.64,140.26 33.77,37.11 89.8,47.12 141.01,46.9 51.2,-0.22 103.01,-7.42 152.36,5.2 97.96,25.53 158.59,123.12 193.55,217.89 34.95,94.77 55.96,198 119.26,276.89 52.77,65.9 129.72,107.69 206.83,142.34 38.89,17.44 79.19,33.7 121.64,37.7 42.45,4.01 88.02,-5.86 118.74,-34.95 26.12,-24.49 38.89,-58.78 47.64,-94.1 -25.42,15.47 -54.66,23.69 -84.46,23.69 -5.98,0 -11.99,-0.33 -17.94,-0.99l0 0z"/>
  <path class="fil7" d="M12747.24 9862.36c0,0 -31.99,234.3 85.19,287.58 117.19,53.29 202.31,234 202.31,234l-95.81 21.3c0,0 -31.99,149.1 53.21,191.69 85.2,42.6 319.49,0 319.49,0 0,0 106.57,-53.28 21.3,-223.68 -85.27,-170.39 -330.03,-542.8 -330.03,-542.8 0,0 -127.87,-138.48 -255.66,31.91z"/>
  <ellipse class="fil5" cx="12778.4" cy="9408.03" rx="51.28" ry="76.89"/>
  <circle class="fil0" cx="12778.4" cy="9416.56" r="25.6"/>
  <ellipse class="fil0" transform="matrix(0.126031 -0.250584 0.250584 0.126031 12757 9455)" rx="106.62" ry="45.77"/>
  <path class="fil4" d="M13834.99 8656.46c-0.89,-36.73 -11.28,-68.2 -26.2,-85.34l-11.8 46.53 0 -55.88c-4.46,-2.74 -9.6,-4.19 -14.83,-4.19 -0.82,0 -1.65,0.04 -2.46,0.1 -29.02,2.68 -51.43,51.44 -50.1,108.88 1.34,57.43 25.98,101.89 55,99.22 29.02,-2.67 51.72,-51.65 50.39,-109.32z"/>
  <path class="fil2" d="M13827.94 8684.44c-12.17,2.68 -23.97,10.17 -36.15,11.65 -12.17,1.49 -25.53,-4.3 -33.17,-23.08 -4.16,-10.09 -6.23,-22.85 -9.72,-33.91 -2.69,-9.04 -7.22,-17.43 -13.28,-24.64 -3.78,15.19 -5.72,30.85 -5.72,46.5 0,1.8 0.02,3.67 0.07,5.46 1.33,57.44 25.97,101.82 54.99,99.14 24.34,-2.22 44.01,-37.1 48.91,-82.08 -1.99,0.21 -3.98,0.53 -5.94,0.97l0.01 -0.01z"/>
  <path class="fil4" d="M14373.04 11683.94c33.62,-14.84 58.63,-36.59 68.72,-57l-47.13 6.83 51.95 -21.08c0.23,-1.46 0.34,-2.94 0.34,-4.41 0,-4.56 -1.08,-9.05 -3.16,-13.1 -13.58,-25.75 -67.24,-27.76 -119.78,-4.46 -52.54,23.3 -84.16,63.01 -70.58,89.06 13.58,26.05 67.02,27.46 119.64,4.16z"/>
  <path class="fil2" d="M14344.69 11688.02c-7.42,-10.16 -18.56,-18.18 -24.57,-28.86 -6.01,-10.69 -5.86,-25.24 8.54,-39.49 7.42,-7.42 18.7,-14.84 27.53,-22.26 7.35,-5.91 13.41,-13.31 17.74,-21.68 -17.29,2.66 -34.23,7.67 -50.17,14.84 -52.55,23.3 -84.16,63.01 -70.58,89.06 11.43,21.59 51.06,26.49 94.55,13.73 -0.9,-1.83 -1.93,-3.63 -3.05,-5.35l0.01 0.01z"/>
  <path class="fil4" d="M11515.81 12025.32c33.62,-14.84 58.63,-36.58 68.72,-56.99l-47.13 6.83 51.95 -21.08c0.23,-1.46 0.34,-2.95 0.34,-4.42 0,-4.56 -1.08,-9.05 -3.16,-13.1 -13.58,-25.75 -67.24,-27.75 -119.78,-4.45 -52.55,23.3 -84.16,63 -70.58,89.05 13.58,26.05 67.02,27.47 119.64,4.16z"/>
  <path class="fil2" d="M11487.46 12029.41c-7.42,-10.17 -18.56,-18.19 -24.57,-28.87 -6.01,-10.69 -5.86,-25.24 8.54,-39.48 7.42,-7.43 18.7,-14.85 27.53,-22.27 7.35,-5.9 13.41,-13.3 17.74,-21.67 -17.29,2.65 -34.23,7.67 -50.17,14.83 -52.55,23.31 -84.16,63.01 -70.58,89.06 11.43,21.6 51.06,26.5 94.55,13.73 -0.9,-1.83 -1.93,-3.63 -3.04,-5.34l0 0.01z"/>
  <polygon class="fil8" points="8862.38,3850.85 8199.71,3612.85 8318.01,3283.44 8730.63,3182.25 8980.7,3521.45 "/>
  <path class="fil0" d="M8782.11 3785.53l-495.23 -188.77c128.56,-172.21 186.06,-293.68 186.1,-484.83l495.22 188.78c-115.05,163.43 -163.16,286.28 -186.09,484.82z"/>
  <rect class="fil1" transform="matrix(0.123218 0.0469701 -0.0469701 0.123218 8564.52 3228.74)" width="2082.17" height="96.85"/>
  <rect class="fil1" transform="matrix(0.123218 0.0469701 -0.0469701 0.123218 8546.33 3276.47)" width="2082.17" height="96.85"/>
  <rect class="fil1" transform="matrix(0.123218 0.0469701 -0.0469701 0.123218 8528.13 3324.21)" width="2082.17" height="96.85"/>
  <rect class="fil1" transform="matrix(0.123218 0.0469701 -0.0469701 0.123218 8509.94 3371.94)" width="2082.17" height="96.85"/>
  <rect class="fil1" transform="matrix(0.123218 0.0469701 -0.0469701 0.123218 8491.74 3419.67)" width="2082.17" height="96.85"/>
  <rect class="fil1" transform="matrix(0.123218 0.0469701 -0.0469701 0.123218 8473.55 3467.4)" width="2082.17" height="96.85"/>
  <rect class="fil1" transform="matrix(0.123218 0.0469701 -0.0469701 0.123218 8455.35 3515.14)" width="2082.17" height="96.85"/>
  <rect class="fil1" transform="matrix(0.123218 0.0469701 -0.0469701 0.123218 8437.16 3562.87)" width="2082.17" height="96.85"/>
  <polygon class="fil1" points="8847.07,3893.48 8184.4,3655.47 8318.01,3283.44 8597.86,3545.83 8980.7,3521.45 "/>
  <polygon class="fil7" points="8510.36,3776.26 8179.93,3657.58 8260.44,3433.4 8267.01,3435.76 8188.86,3653.37 8512.72,3769.69 "/>
  <rect class="fil7" transform="matrix(0.124105 0.0445737 -0.0445737 0.124105 8296.02 3503.05)" width="780.65" height="312.26"/>
  <ellipse class="fil7" transform="matrix(0.0469701 -0.123218 0.123218 0.0469701 8728.91 3215.28)" rx="238.91" ry="661.46"/>
  <path class="fil7" d="M8881.65 2750.52c-12.73,-3.95 -26.03,-5.98 -39.37,-5.98 -58.04,0 -109.39,37.8 -126.61,93.22 -21.74,69.92 37.51,325.89 37.51,325.89 0,0 193.95,-177.24 215.69,-247.16 3.97,-12.72 5.99,-26.03 5.99,-39.36 0,-58.05 -37.79,-109.39 -93.22,-126.61l0.01 0zm-58.02 186.57c-26.25,-8.15 -44.15,-32.47 -44.15,-59.96 0,-34.68 28.12,-62.81 62.8,-62.81 34.68,0 62.8,28.13 62.8,62.81 0,6.31 -0.96,12.62 -2.83,18.64 -8.16,26.26 -32.48,44.16 -59.97,44.16 -6.32,0 -12.62,-0.96 -18.65,-2.83l0 -0.01z"/>
 </g>
</svg>
